{"glyphs":{"0":{"ha":1014,"x_min":0,"x_max":0,"o":"m 506 -19 b 57 483 228 -19 57 208 l 57 486 b 508 992 57 761 232 992 b 957 489 785 992 957 764 l 957 486 b 506 -19 957 211 783 -19 m 508 219 b 686 483 617 219 686 329 l 686 486 b 506 753 686 640 613 753 b 328 489 399 753 328 644 l 328 486 b 508 219 328 331 400 219 "},"1":{"ha":586,"x_min":0,"x_max":0,"o":"m 226 728 l 63 690 l 11 899 l 296 979 l 492 979 l 492 0 l 226 0 "},"2":{"ha":867,"x_min":0,"x_max":0,"o":"m 46 203 l 410 481 b 535 656 500 551 535 597 b 426 754 535 717 492 754 b 233 629 361 754 310 717 l 51 781 b 447 989 156 915 258 989 b 806 679 660 989 806 863 l 806 676 b 581 336 806 521 725 440 l 414 219 l 815 219 l 815 0 l 46 0 "},"3":{"ha":863,"x_min":0,"x_max":0,"o":"m 439 -19 b 25 153 251 -19 119 49 l 194 322 b 426 211 264 251 338 211 b 551 310 503 211 551 250 l 551 313 b 393 413 551 375 494 413 l 279 413 l 240 553 l 464 754 l 92 754 l 92 972 l 794 972 l 794 779 l 563 581 b 814 307 701 550 814 472 l 814 304 b 439 -19 814 107 656 -19 "},"4":{"ha":957,"x_min":0,"x_max":0,"o":"m 533 189 l 63 189 l 18 379 l 522 979 l 794 979 l 794 390 l 918 390 l 918 189 l 794 189 l 794 0 l 533 0 m 533 389 l 533 668 l 301 389 "},"5":{"ha":875,"x_min":0,"x_max":0,"o":"m 421 -19 b 26 135 249 -19 128 40 l 181 315 b 417 210 260 249 335 210 b 560 324 506 210 560 254 l 560 326 b 417 439 560 396 501 439 b 261 390 357 439 307 418 l 101 479 l 129 972 l 779 972 l 779 750 l 342 750 l 333 603 b 489 638 378 624 424 638 b 822 329 664 638 822 540 l 822 326 b 421 -19 822 110 657 -19 "},"6":{"ha":919,"x_min":0,"x_max":0,"o":"m 474 -19 b 176 92 336 -19 246 22 b 57 456 104 164 57 274 l 57 458 b 508 992 57 761 204 992 b 832 885 644 992 739 954 l 706 694 b 513 768 646 739 590 768 b 329 561 399 768 342 683 b 539 636 381 600 443 636 b 860 333 710 636 860 528 l 860 331 b 474 -19 860 113 686 -19 m 463 190 b 597 315 547 190 597 244 l 597 318 b 460 443 597 388 544 443 b 325 319 375 443 325 389 l 325 317 b 463 190 325 246 378 190 "},"7":{"ha":853,"x_min":0,"x_max":0,"o":"m 514 746 l 64 746 l 64 972 l 813 972 l 813 769 l 383 0 l 86 0 "},"8":{"ha":875,"x_min":0,"x_max":0,"o":"m 438 -17 b 38 268 204 -17 38 99 l 38 271 b 204 504 38 389 100 460 b 71 715 129 546 71 610 l 71 718 b 438 989 71 874 219 989 b 804 718 656 989 804 874 l 804 715 b 671 504 804 610 746 546 b 838 272 769 458 838 393 l 838 269 b 438 -17 838 96 671 -17 m 438 578 b 557 683 510 578 557 622 l 557 686 b 438 789 557 740 511 789 b 318 688 364 789 318 742 l 318 685 b 438 578 318 624 365 578 m 438 185 b 578 294 528 185 578 236 l 578 297 b 438 403 578 360 519 403 b 297 297 356 403 297 360 l 297 294 b 438 185 297 236 347 185 "},"9":{"ha":919,"x_min":0,"x_max":0,"o":"m 413 -19 b 74 96 268 -19 163 26 l 200 282 b 408 204 267 229 331 204 b 592 407 519 204 579 282 b 386 328 542 360 472 328 b 60 635 197 328 60 444 l 60 638 b 447 992 60 853 225 992 b 746 878 589 992 672 951 b 863 518 817 808 863 697 l 863 515 b 413 -19 863 197 704 -19 m 460 521 b 596 647 544 521 596 576 l 596 650 b 457 782 596 725 542 782 b 321 651 372 782 321 726 l 321 649 b 460 521 321 575 375 521 "},"A":{"ha":1104,"x_min":0,"x_max":0,"o":"m 422 979 l 682 979 l 1096 0 l 807 0 l 736 174 l 361 174 l 292 0 l 8 0 m 658 383 l 550 660 l 440 383 "},"B":{"ha":993,"x_min":0,"x_max":0,"o":"m 86 972 l 585 972 b 850 885 707 972 793 942 b 913 728 889 846 913 794 l 913 725 b 763 508 913 613 849 546 b 956 271 881 469 956 403 l 956 268 b 588 0 956 101 819 0 l 86 0 m 518 585 b 646 669 600 585 646 613 l 646 672 b 524 756 646 725 604 756 l 349 756 l 349 585 m 557 217 b 686 306 639 217 686 249 l 686 308 b 554 396 686 361 644 396 l 349 396 l 349 217 "},"C":{"ha":1014,"x_min":0,"x_max":0,"o":"m 554 -19 b 53 483 276 -19 53 193 l 53 486 b 565 992 53 769 271 992 b 978 789 764 992 892 908 l 775 632 b 563 746 719 701 656 746 b 331 489 426 746 331 631 l 331 486 b 563 226 331 340 426 226 b 782 344 664 226 724 274 l 985 200 b 554 -19 893 74 769 -19 "},"D":{"ha":1063,"x_min":0,"x_max":0,"o":"m 86 972 l 461 972 b 1010 492 808 972 1010 772 l 1010 489 b 456 0 1010 208 806 0 l 86 0 m 465 239 b 733 485 626 239 733 328 l 733 488 b 465 733 733 643 626 733 l 356 733 l 356 239 "},"E":{"ha":926,"x_min":0,"x_max":0,"o":"m 86 972 l 868 972 l 868 743 l 353 743 l 353 596 l 819 596 l 819 383 l 353 383 l 353 229 l 875 229 l 875 0 l 86 0 "},"F":{"ha":900,"x_min":0,"x_max":0,"o":"m 86 972 l 864 972 l 864 736 l 356 736 l 356 571 l 815 571 l 815 347 l 356 347 l 356 0 l 86 0 "},"G":{"ha":1068,"x_min":0,"x_max":0,"o":"m 582 -19 b 53 483 279 -19 53 189 l 53 486 b 576 992 53 769 275 992 b 971 850 747 992 868 939 l 813 660 b 578 751 743 718 674 751 b 329 485 438 751 329 633 l 329 482 b 593 213 329 325 439 213 b 749 253 658 213 708 226 l 749 371 l 557 371 l 557 568 l 1004 568 l 1004 131 b 582 -19 901 46 758 -19 "},"H":{"ha":1057,"x_min":0,"x_max":0,"o":"m 86 972 l 356 972 l 356 608 l 701 608 l 701 972 l 971 972 l 971 0 l 701 0 l 701 369 l 356 369 l 356 0 l 86 0 "},"I":{"ha":454,"x_min":0,"x_max":0,"o":"m 92 972 l 363 972 l 363 0 l 92 0 "},"J":{"ha":783,"x_min":0,"x_max":0,"o":"m 347 -17 b 6 147 178 -17 74 54 l 179 311 b 331 221 226 254 271 221 b 442 357 399 221 442 267 l 442 972 l 710 972 l 710 356 b 614 82 710 233 679 147 b 347 -17 550 18 458 -17 "},"K":{"ha":1014,"x_min":0,"x_max":0,"o":"m 86 972 l 356 972 l 356 578 l 690 972 l 1010 972 l 642 554 l 1022 0 l 699 0 l 454 361 l 356 251 l 356 0 l 86 0 "},"L":{"ha":856,"x_min":0,"x_max":0,"o":"m 86 972 l 356 972 l 356 236 l 826 236 l 826 0 l 86 0 "},"M":{"ha":1206,"x_min":0,"x_max":0,"o":"m 86 972 l 371 972 l 603 596 l 835 972 l 1119 972 l 1119 0 l 851 0 l 851 558 l 603 178 l 597 178 l 350 556 l 350 0 l 86 0 "},"N":{"ha":1090,"x_min":0,"x_max":0,"o":"m 86 972 l 338 972 l 738 458 l 738 972 l 1004 972 l 1004 0 l 768 0 l 353 533 l 353 0 l 86 0 "},"O":{"ha":1154,"x_min":0,"x_max":0,"o":"m 575 -19 b 53 483 275 -19 53 204 l 53 486 b 578 992 53 765 278 992 b 1100 489 878 992 1100 768 l 1100 486 b 575 -19 1100 207 875 -19 m 578 224 b 825 483 726 224 825 343 l 825 486 b 575 749 825 626 724 749 b 329 489 428 749 329 629 l 329 486 b 578 224 329 346 431 224 "},"P":{"ha":935,"x_min":0,"x_max":0,"o":"m 86 972 l 503 972 b 907 631 749 972 907 846 l 907 628 b 489 278 907 399 731 278 l 356 278 l 356 0 l 86 0 m 483 489 b 638 615 579 489 638 539 l 638 618 b 482 746 638 701 579 746 l 356 746 l 356 489 "},"Q":{"ha":1154,"x_min":0,"x_max":0,"o":"m 871 67 b 575 -19 788 13 686 -19 b 53 483 275 -19 53 204 l 53 486 b 578 992 53 765 278 992 b 1100 489 878 992 1100 768 l 1100 486 b 1014 207 1100 383 1069 286 l 1114 122 l 978 -29 m 578 219 b 676 238 614 219 647 226 l 542 353 l 678 506 l 810 386 b 826 481 821 415 826 447 l 826 483 b 575 749 826 625 725 749 b 329 486 428 749 329 626 l 329 483 b 578 219 329 343 429 219 "},"R":{"ha":999,"x_min":0,"x_max":0,"o":"m 86 972 l 546 972 b 863 867 694 972 797 933 b 949 640 919 811 949 736 l 949 638 b 749 339 949 489 869 390 l 981 0 l 669 0 l 474 294 l 356 294 l 356 0 l 86 0 m 533 506 b 678 621 625 506 678 550 l 678 624 b 532 739 678 700 622 739 l 356 739 l 356 506 "},"S":{"ha":906,"x_min":0,"x_max":0,"o":"m 468 -17 b 13 144 296 -17 132 38 l 163 324 b 478 207 258 247 365 207 b 589 274 550 207 589 232 l 589 276 b 425 369 589 317 557 339 b 58 675 218 417 58 475 l 58 678 b 435 989 58 858 201 989 b 835 860 600 989 729 944 l 700 669 b 428 765 611 732 514 765 b 331 703 363 765 331 738 l 331 700 b 499 606 331 656 364 636 b 861 303 722 557 861 485 l 861 300 b 468 -17 861 101 704 -17 "},"T":{"ha":917,"x_min":0,"x_max":0,"o":"m 324 736 l 32 736 l 32 972 l 885 972 l 885 736 l 593 736 l 593 0 l 324 0 "},"U":{"ha":1053,"x_min":0,"x_max":0,"o":"m 524 -18 b 74 426 247 -18 74 122 l 74 972 l 347 972 l 347 432 b 526 225 347 292 418 225 b 706 425 635 225 706 289 l 706 972 l 979 972 l 979 433 b 524 -18 979 119 800 -18 "},"V":{"ha":1056,"x_min":0,"x_max":0,"o":"m 8 972 l 310 972 l 531 357 l 751 972 l 1047 972 l 653 -7 l 403 -7 "},"W":{"ha":1551,"x_min":0,"x_max":0,"o":"m 21 972 l 306 972 l 475 410 l 663 975 l 894 975 l 1082 410 l 1251 972 l 1531 972 l 1206 -7 l 971 -7 l 775 553 l 581 -7 l 346 -7 "},"X":{"ha":1017,"x_min":0,"x_max":0,"o":"m 349 494 l 29 972 l 339 972 l 511 699 l 685 972 l 988 972 l 668 497 l 1001 0 l 692 0 l 506 293 l 318 0 l 15 0 "},"Y":{"ha":1004,"x_min":0,"x_max":0,"o":"m 367 364 l -3 972 l 304 972 l 504 618 l 706 972 l 1007 972 l 638 368 l 638 0 l 367 0 "},"Z":{"ha":969,"x_min":0,"x_max":0,"o":"m 56 196 l 543 744 l 72 744 l 72 972 l 915 972 l 915 776 l 428 228 l 915 228 l 915 0 l 56 0 "},"a":{"ha":832,"x_min":0,"x_max":0,"o":"m 286 -17 b 33 215 143 -17 33 65 l 33 218 b 328 454 33 374 151 454 b 508 425 397 454 465 440 l 508 438 b 358 560 508 515 460 560 b 151 518 279 560 218 544 l 97 704 b 401 763 182 739 272 763 b 688 671 536 763 628 731 b 768 432 744 615 768 538 l 768 0 l 507 0 l 507 78 b 286 -17 456 21 385 -17 m 381 149 b 511 272 457 149 511 197 l 511 307 b 408 326 485 318 447 326 b 288 233 332 326 288 289 l 288 231 b 381 149 288 179 326 149 "},"b":{"ha":939,"x_min":0,"x_max":0,"o":"m 564 -17 b 335 92 450 -17 383 35 l 335 0 l 71 0 l 71 1014 l 335 1014 l 335 651 b 563 768 386 714 450 768 b 896 379 742 768 896 619 l 896 376 b 564 -17 896 132 742 -17 m 482 204 b 636 375 568 204 636 274 l 636 378 b 482 547 636 476 568 547 b 329 378 397 547 329 476 l 329 375 b 482 204 329 275 397 204 "},"c":{"ha":790,"x_min":0,"x_max":0,"o":"m 433 -18 b 40 372 207 -18 40 160 l 40 375 b 443 767 40 588 206 767 b 764 599 597 767 700 700 l 585 465 b 444 544 549 515 508 544 b 297 378 360 544 297 469 l 297 375 b 447 204 297 278 358 204 b 592 282 510 204 550 233 l 768 154 b 433 -18 699 51 599 -18 "},"d":{"ha":939,"x_min":0,"x_max":0,"o":"m 375 -17 b 43 372 197 -17 43 132 l 43 375 b 374 768 43 619 196 768 b 604 660 488 768 554 717 l 604 1014 l 868 1014 l 868 0 l 604 0 l 604 100 b 375 -17 553 38 488 -17 m 456 204 b 608 375 540 204 608 275 l 608 378 b 456 547 608 476 540 547 b 301 378 371 547 301 478 l 301 375 b 456 204 301 275 371 204 "},"e":{"ha":840,"x_min":0,"x_max":0,"o":"m 443 -18 b 40 372 207 -18 40 139 l 40 375 b 419 768 40 594 197 768 b 799 357 679 768 799 578 b 797 303 799 340 799 321 l 294 303 b 457 179 315 221 375 179 b 624 256 519 179 569 203 l 769 135 b 443 -18 697 43 593 -18 m 551 438 b 421 574 542 521 493 574 b 290 438 351 574 304 519 "},"f":{"ha":561,"x_min":0,"x_max":0,"o":"m 118 540 l 31 540 l 31 747 l 118 747 l 118 764 b 182 958 118 850 138 914 b 378 1024 228 1004 289 1024 b 550 1003 458 1024 508 1015 l 550 817 b 451 832 519 826 489 832 b 376 761 403 832 376 810 l 376 743 l 549 743 l 549 540 l 381 540 l 381 0 l 118 0 "},"g":{"ha":939,"x_min":0,"x_max":0,"o":"m 440 -225 b 64 -139 294 -225 172 -194 l 149 36 b 411 -35 229 -8 310 -35 b 608 150 543 -35 608 31 l 608 179 b 376 67 556 118 486 67 b 43 415 192 67 43 200 l 43 418 b 368 768 43 635 194 768 b 604 663 481 768 547 722 l 604 751 l 868 751 l 868 181 b 771 -119 868 43 838 -53 b 440 -225 703 -187 597 -225 m 456 269 b 608 415 544 269 608 332 l 608 418 b 456 563 608 501 544 563 b 301 417 365 563 301 500 l 301 414 b 456 269 301 331 365 269 "},"h":{"ha":881,"x_min":0,"x_max":0,"o":"m 71 1014 l 335 1014 l 335 649 b 560 768 383 711 453 768 b 815 492 719 768 815 663 l 815 0 l 551 0 l 551 407 b 446 533 551 489 508 533 b 335 407 382 533 335 489 l 335 0 l 71 0 "},"i":{"ha":417,"x_min":0,"x_max":0,"o":"m 71 1014 l 346 1014 l 346 819 l 71 819 m 76 751 l 340 751 l 340 0 l 76 0 "},"j":{"ha":419,"x_min":0,"x_max":0,"o":"m 71 1014 l 346 1014 l 346 819 l 71 819 m 72 -226 b -36 -217 31 -226 -4 -221 l -36 -42 b -1 -43 -25 -43 -12 -43 b 76 44 50 -43 76 -21 l 76 751 l 340 751 l 340 33 b 72 -226 340 -157 243 -226 "},"k":{"ha":838,"x_min":0,"x_max":0,"o":"m 71 1014 l 335 1014 l 335 500 l 539 751 l 838 751 l 576 450 l 844 0 l 554 0 l 403 256 l 335 176 l 335 0 l 71 0 "},"l":{"ha":417,"x_min":0,"x_max":0,"o":"m 76 1014 l 340 1014 l 340 0 l 76 0 "},"m":{"ha":1349,"x_min":0,"x_max":0,"o":"m 71 751 l 335 751 l 335 649 b 558 768 383 711 453 768 b 775 646 658 768 735 724 b 1026 768 840 721 917 768 b 1283 493 1186 768 1283 668 l 1283 0 l 1019 0 l 1019 408 b 917 533 1019 490 979 533 b 808 408 854 533 808 490 l 808 0 l 544 0 l 544 408 b 442 533 544 490 504 533 b 335 408 379 533 335 490 l 335 0 l 71 0 "},"n":{"ha":881,"x_min":0,"x_max":0,"o":"m 71 751 l 335 751 l 335 646 b 560 768 383 708 453 768 b 815 492 719 768 815 663 l 815 0 l 551 0 l 551 407 b 446 533 551 489 508 533 b 335 407 382 533 335 489 l 335 0 l 71 0 "},"o":{"ha":911,"x_min":0,"x_max":0,"o":"m 454 -18 b 40 372 214 -18 40 158 l 40 375 b 457 768 40 589 215 768 b 871 378 697 768 871 592 l 871 375 b 454 -18 871 161 696 -18 m 457 206 b 614 372 553 206 614 282 l 614 375 b 454 544 614 467 547 544 b 297 378 358 544 297 468 l 297 375 b 457 206 297 283 364 206 "},"p":{"ha":939,"x_min":0,"x_max":0,"o":"m 71 751 l 335 751 l 335 651 b 563 768 386 714 450 768 b 896 379 742 768 896 619 l 896 376 b 564 -17 896 132 742 -17 b 335 92 450 -17 383 35 l 335 -222 l 71 -222 m 482 204 b 636 375 568 204 636 274 l 636 378 b 482 547 636 476 568 547 b 329 378 397 547 329 476 l 329 375 b 482 204 329 275 397 204 "},"q":{"ha":939,"x_min":0,"x_max":0,"o":"m 604 100 b 375 -17 553 38 488 -17 b 43 372 197 -17 43 132 l 43 375 b 374 768 43 619 196 768 b 604 660 488 768 554 717 l 604 751 l 868 751 l 868 -222 l 604 -222 m 456 204 b 608 375 540 204 608 275 l 608 378 b 456 547 608 476 540 547 b 301 378 371 547 301 478 l 301 375 b 456 204 301 275 371 204 "},"r":{"ha":594,"x_min":0,"x_max":0,"o":"m 71 751 l 335 751 l 335 600 b 572 764 378 703 447 769 l 572 486 l 550 486 b 335 233 413 486 335 407 l 335 0 l 71 0 "},"s":{"ha":714,"x_min":0,"x_max":0,"o":"m 369 -17 b 14 94 243 -17 118 19 l 113 254 b 371 168 199 197 293 168 b 438 208 417 168 438 182 l 438 211 b 317 275 438 240 396 253 b 50 515 168 314 50 364 l 50 518 b 351 767 50 678 178 767 b 661 679 461 767 575 735 l 571 513 b 349 582 493 556 408 582 b 288 546 308 582 288 567 l 288 543 b 410 476 288 514 331 500 b 676 238 558 435 676 383 l 676 235 b 369 -17 676 69 553 -17 "},"t":{"ha":599,"x_min":0,"x_max":0,"o":"m 369 -15 b 117 233 211 -15 117 54 l 117 539 l 28 539 l 28 751 l 117 751 l 117 942 l 381 942 l 381 751 l 556 751 l 556 539 l 381 539 l 381 285 b 453 210 381 232 404 210 b 553 235 488 210 521 219 l 553 28 b 369 -15 506 1 443 -15 "},"u":{"ha":881,"x_min":0,"x_max":0,"o":"m 321 -17 b 65 260 161 -17 65 89 l 65 751 l 329 751 l 329 344 b 436 218 329 263 372 218 b 546 344 499 218 546 263 l 546 751 l 810 751 l 810 0 l 546 0 l 546 103 b 321 -17 497 40 428 -17 "},"v":{"ha":868,"x_min":0,"x_max":0,"o":"m 14 751 l 292 751 l 436 313 l 581 751 l 854 751 l 554 -6 l 314 -6 "},"w":{"ha":1196,"x_min":0,"x_max":0,"o":"m 17 751 l 275 751 l 374 374 l 489 754 l 707 754 l 824 371 l 925 751 l 1179 751 l 947 -6 l 719 -6 l 597 385 l 472 -6 l 246 -6 "},"x":{"ha":818,"x_min":0,"x_max":0,"o":"m 264 379 l 15 751 l 300 751 l 411 567 l 522 751 l 801 751 l 554 381 l 807 0 l 524 0 l 407 193 l 289 0 l 11 0 "},"y":{"ha":869,"x_min":0,"x_max":0,"o":"m 293 -226 b 51 -161 200 -226 121 -200 l 133 24 b 249 -17 175 -1 219 -17 b 310 14 275 -17 293 -10 l 15 751 l 292 751 l 442 299 l 583 751 l 854 751 l 579 18 b 293 -226 514 -157 443 -226 "},"z":{"ha":782,"x_min":0,"x_max":0,"o":"m 44 174 l 392 542 l 57 542 l 57 751 l 742 751 l 742 578 l 393 210 l 742 210 l 742 0 l 44 0 "},"Á":{"ha":1104,"x_min":0,"x_max":0,"o":"m 422 979 l 682 979 l 1096 0 l 807 0 l 736 174 l 361 174 l 292 0 l 8 0 m 658 383 l 550 660 l 440 383 m 599 1278 l 850 1201 l 644 1053 l 449 1053 "},"á":{"ha":832,"x_min":0,"x_max":0,"o":"m 286 -17 b 33 215 143 -17 33 65 l 33 218 b 328 454 33 374 151 454 b 508 425 397 454 465 440 l 508 438 b 358 560 508 515 460 560 b 151 518 279 560 218 544 l 97 704 b 401 763 182 739 272 763 b 688 671 536 763 628 731 b 768 432 744 615 768 538 l 768 0 l 507 0 l 507 78 b 286 -17 456 21 385 -17 m 381 149 b 511 272 457 149 511 197 l 511 307 b 408 326 485 318 447 326 b 288 233 332 326 288 289 l 288 231 b 381 149 288 179 326 149 m 465 1078 l 710 999 l 504 822 l 321 822 "},"Ă":{"ha":1104,"x_min":0,"x_max":0,"o":"m 422 979 l 682 979 l 1096 0 l 807 0 l 736 174 l 361 174 l 292 0 l 8 0 m 658 383 l 550 660 l 440 383 m 553 1050 b 279 1260 400 1050 297 1121 l 439 1260 b 553 1197 456 1219 489 1197 b 668 1260 618 1197 650 1219 l 826 1260 b 553 1050 808 1121 707 1050 "},"ă":{"ha":832,"x_min":0,"x_max":0,"o":"m 286 -17 b 33 215 143 -17 33 65 l 33 218 b 328 454 33 374 151 454 b 508 425 397 454 465 440 l 508 438 b 358 560 508 515 460 560 b 151 518 279 560 218 544 l 97 704 b 401 763 182 739 272 763 b 688 671 536 763 628 731 b 768 432 744 615 768 538 l 768 0 l 507 0 l 507 78 b 286 -17 456 21 385 -17 m 381 149 b 511 272 457 149 511 197 l 511 307 b 408 326 485 318 447 326 b 288 233 332 326 288 289 l 288 231 b 381 149 288 179 326 149 m 421 819 b 147 1050 267 819 161 903 l 301 1050 b 421 969 318 1001 351 969 b 540 1050 490 969 524 1001 l 694 1050 b 421 819 682 903 575 819 "},"Â":{"ha":1104,"x_min":0,"x_max":0,"o":"m 422 979 l 682 979 l 1096 0 l 807 0 l 736 174 l 361 174 l 292 0 l 8 0 m 658 383 l 550 660 l 440 383 m 435 1256 l 669 1256 l 840 1049 l 660 1049 l 550 1122 l 440 1049 l 264 1049 "},"â":{"ha":832,"x_min":0,"x_max":0,"o":"m 286 -17 b 33 215 143 -17 33 65 l 33 218 b 328 454 33 374 151 454 b 508 425 397 454 465 440 l 508 438 b 358 560 508 515 460 560 b 151 518 279 560 218 544 l 97 704 b 401 763 182 739 272 763 b 688 671 536 763 628 731 b 768 432 744 615 768 538 l 768 0 l 507 0 l 507 78 b 286 -17 456 21 385 -17 m 381 149 b 511 272 457 149 511 197 l 511 307 b 408 326 485 318 447 326 b 288 233 332 326 288 289 l 288 231 b 381 149 288 179 326 149 m 314 1050 l 528 1050 l 706 822 l 536 822 l 419 907 l 303 822 l 136 822 "},"Ä":{"ha":1104,"x_min":0,"x_max":0,"o":"m 422 979 l 682 979 l 1096 0 l 807 0 l 736 174 l 361 174 l 292 0 l 8 0 m 658 383 l 550 660 l 440 383 m 590 1244 l 819 1244 l 819 1053 l 590 1053 m 283 1244 l 513 1244 l 513 1053 l 283 1053 "},"ä":{"ha":832,"x_min":0,"x_max":0,"o":"m 286 -17 b 33 215 143 -17 33 65 l 33 218 b 328 454 33 374 151 454 b 508 425 397 454 465 440 l 508 438 b 358 560 508 515 460 560 b 151 518 279 560 218 544 l 97 704 b 401 763 182 739 272 763 b 688 671 536 763 628 731 b 768 432 744 615 768 538 l 768 0 l 507 0 l 507 78 b 286 -17 456 21 385 -17 m 381 149 b 511 272 457 149 511 197 l 511 307 b 408 326 485 318 447 326 b 288 233 332 326 288 289 l 288 231 b 381 149 288 179 326 149 m 454 1019 l 679 1019 l 679 822 l 454 822 m 164 1019 l 388 1019 l 388 822 l 164 822 "},"Æ":{"ha":1476,"x_min":0,"x_max":0,"o":"m 507 972 l 1417 972 l 1417 743 l 932 743 l 932 596 l 1368 596 l 1368 383 l 932 383 l 932 229 l 1424 229 l 1424 0 l 669 0 l 669 174 l 356 174 l 265 0 l -7 0 m 669 383 l 669 751 l 653 751 l 464 383 "},"æ":{"ha":1306,"x_min":0,"x_max":0,"o":"m 313 -17 b 33 215 158 -17 33 61 l 33 218 b 328 454 33 374 151 454 b 508 425 397 454 465 440 l 508 438 b 358 560 508 515 460 560 b 151 518 279 560 218 544 l 97 704 b 401 763 182 739 272 763 b 656 678 524 763 601 732 b 890 768 715 735 794 768 b 1264 357 1142 768 1264 578 b 1261 303 1264 340 1263 321 l 758 303 b 921 179 781 221 840 179 b 1088 256 985 179 1033 203 l 1233 135 b 908 -18 1161 43 1058 -18 b 614 94 788 -18 685 24 b 313 -17 526 28 424 -17 m 1017 438 b 885 574 1007 521 957 574 b 756 438 815 574 768 519 m 385 151 b 536 213 435 151 486 172 b 510 307 524 242 514 274 b 408 326 483 318 446 326 b 288 233 332 326 288 289 l 288 231 b 385 151 288 181 329 151 "},"Ǽ":{"ha":1476,"x_min":0,"x_max":0,"o":"m 903 1264 l 1154 1188 l 949 1039 l 753 1039 m 507 972 l 1417 972 l 1417 743 l 932 743 l 932 596 l 1368 596 l 1368 383 l 932 383 l 932 229 l 1424 229 l 1424 0 l 669 0 l 669 174 l 356 174 l 265 0 l -7 0 m 669 383 l 669 751 l 653 751 l 464 383 "},"ǽ":{"ha":1306,"x_min":0,"x_max":0,"o":"m 692 1072 l 936 993 l 731 817 l 547 817 m 313 -17 b 33 215 158 -17 33 61 l 33 218 b 328 454 33 374 151 454 b 508 425 397 454 465 440 l 508 438 b 358 560 508 515 460 560 b 151 518 279 560 218 544 l 97 704 b 401 763 182 739 272 763 b 656 678 524 763 601 732 b 890 768 715 735 794 768 b 1264 357 1142 768 1264 578 b 1261 303 1264 340 1263 321 l 758 303 b 921 179 781 221 840 179 b 1088 256 985 179 1033 203 l 1233 135 b 908 -18 1161 43 1058 -18 b 614 94 788 -18 685 24 b 313 -17 526 28 424 -17 m 1017 438 b 885 574 1007 521 957 574 b 756 438 815 574 768 519 m 385 151 b 536 213 435 151 486 172 b 510 307 524 242 514 274 b 408 326 483 318 446 326 b 288 233 332 326 288 289 l 288 231 b 385 151 288 181 329 151 "},"À":{"ha":1104,"x_min":0,"x_max":0,"o":"m 422 979 l 682 979 l 1096 0 l 807 0 l 736 174 l 361 174 l 292 0 l 8 0 m 658 383 l 550 660 l 440 383 m 657 1053 l 460 1053 l 254 1201 l 506 1278 "},"à":{"ha":832,"x_min":0,"x_max":0,"o":"m 286 -17 b 33 215 143 -17 33 65 l 33 218 b 328 454 33 374 151 454 b 508 425 397 454 465 440 l 508 438 b 358 560 508 515 460 560 b 151 518 279 560 218 544 l 97 704 b 401 763 182 739 272 763 b 688 671 536 763 628 731 b 768 432 744 615 768 538 l 768 0 l 507 0 l 507 78 b 286 -17 456 21 385 -17 m 381 149 b 511 272 457 149 511 197 l 511 307 b 408 326 485 318 447 326 b 288 233 332 326 288 289 l 288 231 b 381 149 288 179 326 149 m 135 999 l 379 1078 l 522 822 l 339 822 "},"Ā":{"ha":1104,"x_min":0,"x_max":0,"o":"m 422 979 l 682 979 l 1096 0 l 807 0 l 736 174 l 361 174 l 292 0 l 8 0 m 658 383 l 550 660 l 440 383 m 275 1225 l 828 1225 l 828 1063 l 275 1063 "},"ā":{"ha":832,"x_min":0,"x_max":0,"o":"m 286 -17 b 33 215 143 -17 33 65 l 33 218 b 328 454 33 374 151 454 b 508 425 397 454 465 440 l 508 438 b 358 560 508 515 460 560 b 151 518 279 560 218 544 l 97 704 b 401 763 182 739 272 763 b 688 671 536 763 628 731 b 768 432 744 615 768 538 l 768 0 l 507 0 l 507 78 b 286 -17 456 21 385 -17 m 381 149 b 511 272 457 149 511 197 l 511 307 b 408 326 485 318 447 326 b 288 233 332 326 288 289 l 288 231 b 381 149 288 179 326 149 m 161 990 l 682 990 l 682 832 l 161 832 "},"Ą":{"ha":1104,"x_min":0,"x_max":0,"o":"m 1104 -228 b 811 -112 925 -253 811 -197 b 867 0 811 -74 831 -36 l 807 0 l 736 174 l 361 174 l 292 0 l 8 0 l 422 979 l 682 979 l 1096 0 l 1035 0 b 1004 -65 1013 -25 1004 -46 b 1104 -115 1004 -101 1035 -118 l 1104 -228 m 658 383 l 550 660 l 440 383 "},"ą":{"ha":832,"x_min":0,"x_max":0,"o":"m 775 -228 b 482 -112 596 -253 482 -197 b 538 0 482 -74 501 -36 l 507 0 l 507 78 b 286 -17 456 21 385 -17 b 33 215 143 -17 33 65 l 33 218 b 328 454 33 374 151 454 b 508 425 397 454 465 440 l 508 438 b 358 560 508 515 460 560 b 151 518 279 560 218 544 l 97 704 b 401 763 182 739 272 763 b 688 671 536 763 628 731 b 768 432 744 615 768 538 l 768 0 l 706 0 b 675 -65 683 -25 675 -46 b 775 -115 675 -101 706 -118 l 775 -228 m 381 149 b 511 272 457 149 511 197 l 511 307 b 408 326 485 318 447 326 b 288 233 332 326 288 289 l 288 231 b 381 149 288 179 326 149 "},"Å":{"ha":1104,"x_min":0,"x_max":0,"o":"m 357 1029 b 553 1203 357 1129 444 1203 b 749 1029 661 1203 749 1129 b 707 919 749 986 733 949 l 1096 0 l 807 0 l 736 174 l 361 174 l 292 0 l 8 0 l 397 921 b 357 1029 372 950 357 988 m 658 383 l 550 660 l 440 383 m 453 1029 b 553 939 453 978 493 939 b 653 1029 613 939 653 978 b 553 1119 653 1079 613 1119 b 453 1029 493 1119 453 1079 "},"å":{"ha":832,"x_min":0,"x_max":0,"o":"m 286 -17 b 33 215 143 -17 33 65 l 33 218 b 328 454 33 374 151 454 b 508 425 397 454 465 440 l 508 438 b 358 560 508 515 460 560 b 151 518 279 560 218 544 l 97 704 b 401 763 182 739 272 763 b 688 671 536 763 628 731 b 768 432 744 615 768 538 l 768 0 l 507 0 l 507 78 b 286 -17 456 21 385 -17 m 381 149 b 511 272 457 149 511 197 l 511 307 b 408 326 485 318 447 326 b 288 233 332 326 288 289 l 288 231 b 381 149 288 179 326 149 m 238 1000 b 421 1176 238 1099 319 1176 b 606 1000 524 1176 606 1099 b 421 824 606 901 524 824 b 238 1000 319 824 238 901 m 326 1000 b 421 904 326 947 368 904 b 517 1000 474 904 517 947 b 421 1097 517 1054 474 1097 b 326 1000 368 1097 326 1054 "},"Ǻ":{"ha":1104,"x_min":0,"x_max":0,"o":"m 357 1029 b 553 1203 357 1129 444 1203 b 749 1029 661 1203 749 1129 b 707 919 749 986 733 949 l 1096 0 l 807 0 l 736 174 l 361 174 l 292 0 l 8 0 l 397 921 b 357 1029 372 950 357 988 m 606 1449 l 850 1369 l 631 1238 l 444 1238 m 658 383 l 550 660 l 440 383 m 453 1029 b 553 939 453 978 493 939 b 653 1029 613 939 653 978 b 553 1119 653 1079 613 1119 b 453 1029 493 1119 453 1079 "},"ǻ":{"ha":832,"x_min":0,"x_max":0,"o":"m 475 1444 l 713 1367 l 503 1222 l 319 1222 m 286 -17 b 33 215 143 -17 33 65 l 33 218 b 328 454 33 374 151 454 b 508 425 397 454 465 440 l 508 438 b 358 560 508 515 460 560 b 151 518 279 560 218 544 l 97 704 b 401 763 182 739 272 763 b 688 671 536 763 628 731 b 768 432 744 615 768 538 l 768 0 l 507 0 l 507 78 b 286 -17 456 21 385 -17 m 381 149 b 511 272 457 149 511 197 l 511 307 b 408 326 485 318 447 326 b 288 233 332 326 288 289 l 288 231 b 381 149 288 179 326 149 m 238 1000 b 421 1176 238 1099 319 1176 b 606 1000 524 1176 606 1099 b 421 824 606 901 524 824 b 238 1000 319 824 238 901 m 326 1000 b 421 904 326 947 368 904 b 517 1000 474 904 517 947 b 421 1097 517 1054 474 1097 b 326 1000 368 1097 326 1054 "},"Ã":{"ha":1104,"x_min":0,"x_max":0,"o":"m 422 979 l 682 979 l 1096 0 l 807 0 l 736 174 l 361 174 l 292 0 l 8 0 m 658 383 l 550 660 l 440 383 m 256 1076 b 431 1283 286 1214 335 1283 b 660 1229 514 1283 614 1229 b 732 1293 699 1229 714 1250 l 858 1258 b 685 1053 829 1121 779 1053 b 456 1107 601 1053 500 1107 b 382 1042 417 1107 400 1086 "},"ã":{"ha":832,"x_min":0,"x_max":0,"o":"m 286 -17 b 33 215 143 -17 33 65 l 33 218 b 328 454 33 374 151 454 b 508 425 397 454 465 440 l 508 438 b 358 560 508 515 460 560 b 151 518 279 560 218 544 l 97 704 b 401 763 182 739 272 763 b 688 671 536 763 628 731 b 768 432 744 615 768 538 l 768 0 l 507 0 l 507 78 b 286 -17 456 21 385 -17 m 381 149 b 511 272 457 149 511 197 l 511 307 b 408 326 485 318 447 326 b 288 233 332 326 288 289 l 288 231 b 381 149 288 179 326 149 m 133 846 b 306 1053 164 983 211 1053 b 522 999 389 1053 478 999 b 593 1063 561 999 575 1019 l 719 1028 b 547 822 690 890 643 822 b 331 876 464 822 376 876 b 260 811 292 876 278 856 "},"Ć":{"ha":1015,"x_min":0,"x_max":0,"o":"m 554 -19 b 53 483 276 -19 53 193 l 53 486 b 565 992 53 769 271 992 b 978 789 764 992 892 908 l 775 632 b 563 746 719 701 656 746 b 331 489 426 746 331 631 l 331 486 b 563 226 331 340 426 226 b 782 344 664 226 724 274 l 985 200 b 554 -19 893 74 769 -19 m 600 1278 l 851 1201 l 646 1053 l 450 1053 "},"ć":{"ha":790,"x_min":0,"x_max":0,"o":"m 482 1078 l 726 999 l 521 822 l 338 822 m 433 -18 b 40 372 207 -18 40 160 l 40 375 b 443 767 40 588 206 767 b 764 599 597 767 700 700 l 585 465 b 444 544 549 515 508 544 b 297 378 360 544 297 469 l 297 375 b 447 204 297 278 358 204 b 592 282 510 204 550 233 l 768 154 b 433 -18 699 51 599 -18 "},"Č":{"ha":1015,"x_min":0,"x_max":0,"o":"m 554 -19 b 53 483 276 -19 53 193 l 53 486 b 565 992 53 769 271 992 b 978 789 764 992 892 908 l 775 632 b 563 746 719 701 656 746 b 331 489 426 746 331 631 l 331 486 b 563 226 331 340 426 226 b 782 344 664 226 724 274 l 985 200 b 554 -19 893 74 769 -19 m 672 1053 l 438 1053 l 267 1260 l 446 1260 l 556 1186 l 665 1260 l 843 1260 "},"č":{"ha":790,"x_min":0,"x_max":0,"o":"m 546 822 l 332 822 l 154 1050 l 324 1050 l 440 965 l 557 1050 l 724 1050 m 433 -18 b 40 372 207 -18 40 160 l 40 375 b 443 767 40 588 206 767 b 764 599 597 767 700 700 l 585 465 b 444 544 549 515 508 544 b 297 378 360 544 297 469 l 297 375 b 447 204 297 278 358 204 b 592 282 510 204 550 233 l 768 154 b 433 -18 699 51 599 -18 "},"Ç":{"ha":1015,"x_min":0,"x_max":0,"o":"m 319 -151 l 428 -4 b 53 483 211 49 53 239 l 53 486 b 565 992 53 769 271 992 b 978 789 764 992 892 908 l 775 632 b 563 746 719 701 656 746 b 331 489 426 746 331 631 l 331 486 b 563 226 331 340 426 226 b 782 344 664 226 724 274 l 985 200 b 606 -17 900 83 790 -3 l 528 -240 "},"ç":{"ha":790,"x_min":0,"x_max":0,"o":"m 197 -151 l 308 0 b 40 372 149 51 40 200 l 40 375 b 443 767 40 588 206 767 b 764 599 597 767 700 700 l 585 465 b 444 544 549 515 508 544 b 297 378 360 544 297 469 l 297 375 b 447 204 297 278 358 204 b 592 282 510 204 550 233 l 768 154 b 485 -15 706 63 619 -1 l 406 -240 "},"Ċ":{"ha":1015,"x_min":0,"x_max":0,"o":"m 436 1244 l 672 1244 l 672 1053 l 436 1053 m 554 -19 b 53 483 276 -19 53 193 l 53 486 b 565 992 53 769 271 992 b 978 789 764 992 892 908 l 775 632 b 563 746 719 701 656 746 b 331 489 426 746 331 631 l 331 486 b 563 226 331 340 426 226 b 782 344 664 226 724 274 l 985 200 b 554 -19 893 74 769 -19 "},"ċ":{"ha":790,"x_min":0,"x_max":0,"o":"m 433 -18 b 40 372 207 -18 40 160 l 40 375 b 443 767 40 588 206 767 b 764 599 597 767 700 700 l 585 465 b 444 544 549 515 508 544 b 297 378 360 544 297 469 l 297 375 b 447 204 297 278 358 204 b 592 282 510 204 550 233 l 768 154 b 433 -18 699 51 599 -18 m 324 1019 l 556 1019 l 556 822 l 324 822 "},"Ď":{"ha":1064,"x_min":0,"x_max":0,"o":"m 632 1039 l 397 1039 l 226 1246 l 406 1246 l 515 1172 l 625 1246 l 803 1246 m 86 972 l 461 972 b 1010 492 808 972 1010 772 l 1010 489 b 456 0 1010 208 806 0 l 86 0 m 465 239 b 733 485 626 239 733 328 l 733 488 b 465 733 733 643 626 733 l 356 733 l 356 239 "},"ď":{"ha":939,"x_min":0,"x_max":0,"o":"m 947 1014 l 1129 1014 l 1129 1010 l 1039 715 l 932 715 m 375 -17 b 43 372 197 -17 43 132 l 43 375 b 374 768 43 619 196 768 b 604 660 488 768 554 717 l 604 1014 l 868 1014 l 868 0 l 604 0 l 604 100 b 375 -17 553 38 488 -17 m 456 204 b 608 375 540 204 608 275 l 608 378 b 456 547 608 476 540 547 b 301 378 371 547 301 478 l 301 375 b 456 204 301 275 371 204 "},"Đ":{"ha":1132,"x_min":0,"x_max":0,"o":"m 154 383 l 43 383 l 43 596 l 154 596 l 154 972 l 531 972 b 1078 492 876 972 1078 772 l 1078 489 b 525 0 1078 208 874 0 l 154 0 m 533 232 b 803 485 699 232 803 325 l 803 488 b 533 742 803 647 699 742 l 415 742 l 415 593 l 581 593 l 581 386 l 415 386 l 415 232 "},"đ":{"ha":939,"x_min":0,"x_max":0,"o":"m 396 950 l 604 950 l 604 1014 l 868 1014 l 868 950 l 956 950 l 956 825 l 868 825 l 868 0 l 604 0 l 604 100 b 375 -17 553 38 488 -17 b 43 372 197 -17 43 132 l 43 375 b 374 768 43 619 196 768 b 604 660 488 768 554 717 l 604 825 l 396 825 m 456 204 b 608 375 540 204 608 275 l 608 378 b 456 547 608 476 540 547 b 301 378 371 547 301 478 l 301 375 b 456 204 301 275 371 204 "},"É":{"ha":928,"x_min":0,"x_max":0,"o":"m 526 1264 l 778 1188 l 572 1039 l 376 1039 m 86 972 l 868 972 l 868 743 l 353 743 l 353 596 l 819 596 l 819 383 l 353 383 l 353 229 l 875 229 l 875 0 l 86 0 "},"é":{"ha":842,"x_min":0,"x_max":0,"o":"m 467 1078 l 711 999 l 506 822 l 322 822 m 443 -18 b 40 372 207 -18 40 139 l 40 375 b 419 768 40 594 197 768 b 799 357 679 768 799 578 b 797 303 799 340 799 321 l 294 303 b 457 179 315 221 375 179 b 624 256 519 179 569 203 l 769 135 b 443 -18 697 43 593 -18 m 551 438 b 421 574 542 521 493 574 b 290 438 351 574 304 519 "},"Ĕ":{"ha":928,"x_min":0,"x_max":0,"o":"m 481 1036 b 207 1246 328 1036 225 1107 l 367 1246 b 481 1183 383 1206 417 1183 b 596 1246 546 1183 578 1206 l 754 1246 b 481 1036 736 1107 635 1036 m 86 972 l 868 972 l 868 743 l 353 743 l 353 596 l 819 596 l 819 383 l 353 383 l 353 229 l 875 229 l 875 0 l 86 0 "},"ĕ":{"ha":842,"x_min":0,"x_max":0,"o":"m 443 -18 b 40 372 207 -18 40 139 l 40 375 b 419 768 40 594 197 768 b 799 357 679 768 799 578 b 797 303 799 340 799 321 l 294 303 b 457 179 315 221 375 179 b 624 256 519 179 569 203 l 769 135 b 443 -18 697 43 593 -18 m 551 438 b 421 574 542 521 493 574 b 290 438 351 574 304 519 m 422 819 b 149 1050 268 819 163 903 l 303 1050 b 422 969 319 1001 353 969 b 542 1050 492 969 525 1001 l 696 1050 b 422 819 683 903 576 819 "},"Ě":{"ha":928,"x_min":0,"x_max":0,"o":"m 597 1039 l 363 1039 l 192 1246 l 371 1246 l 481 1172 l 590 1246 l 768 1246 m 86 972 l 868 972 l 868 743 l 353 743 l 353 596 l 819 596 l 819 383 l 353 383 l 353 229 l 875 229 l 875 0 l 86 0 "},"ě":{"ha":842,"x_min":0,"x_max":0,"o":"m 529 822 l 315 822 l 138 1050 l 307 1050 l 424 965 l 540 1050 l 707 1050 m 443 -18 b 40 372 207 -18 40 139 l 40 375 b 419 768 40 594 197 768 b 799 357 679 768 799 578 b 797 303 799 340 799 321 l 294 303 b 457 179 315 221 375 179 b 624 256 519 179 569 203 l 769 135 b 443 -18 697 43 593 -18 m 551 438 b 421 574 542 521 493 574 b 290 438 351 574 304 519 "},"Ê":{"ha":928,"x_min":0,"x_max":0,"o":"m 86 972 l 868 972 l 868 743 l 353 743 l 353 596 l 819 596 l 819 383 l 353 383 l 353 229 l 875 229 l 875 0 l 86 0 m 363 1246 l 597 1246 l 768 1039 l 588 1039 l 478 1113 l 368 1039 l 192 1039 "},"ê":{"ha":842,"x_min":0,"x_max":0,"o":"m 315 1050 l 529 1050 l 707 822 l 538 822 l 421 907 l 304 822 l 138 822 m 443 -18 b 40 372 207 -18 40 139 l 40 375 b 419 768 40 594 197 768 b 799 357 679 768 799 578 b 797 303 799 340 799 321 l 294 303 b 457 179 315 221 375 179 b 624 256 519 179 569 203 l 769 135 b 443 -18 697 43 593 -18 m 551 438 b 421 574 542 521 493 574 b 290 438 351 574 304 519 "},"Ë":{"ha":928,"x_min":0,"x_max":0,"o":"m 518 1231 l 747 1231 l 747 1039 l 518 1039 m 211 1231 l 440 1231 l 440 1039 l 211 1039 m 86 972 l 868 972 l 868 743 l 353 743 l 353 596 l 819 596 l 819 383 l 353 383 l 353 229 l 875 229 l 875 0 l 86 0 "},"ë":{"ha":842,"x_min":0,"x_max":0,"o":"m 456 1019 l 681 1019 l 681 822 l 456 822 m 165 1019 l 389 1019 l 389 822 l 165 822 m 443 -18 b 40 372 207 -18 40 139 l 40 375 b 419 768 40 594 197 768 b 799 357 679 768 799 578 b 797 303 799 340 799 321 l 294 303 b 457 179 315 221 375 179 b 624 256 519 179 569 203 l 769 135 b 443 -18 697 43 593 -18 m 551 438 b 421 574 542 521 493 574 b 290 438 351 574 304 519 "},"Ė":{"ha":928,"x_min":0,"x_max":0,"o":"m 361 1231 l 597 1231 l 597 1039 l 361 1039 m 86 972 l 868 972 l 868 743 l 353 743 l 353 596 l 819 596 l 819 383 l 353 383 l 353 229 l 875 229 l 875 0 l 86 0 "},"ė":{"ha":842,"x_min":0,"x_max":0,"o":"m 443 -18 b 40 372 207 -18 40 139 l 40 375 b 419 768 40 594 197 768 b 799 357 679 768 799 578 b 797 303 799 340 799 321 l 294 303 b 457 179 315 221 375 179 b 624 256 519 179 569 203 l 769 135 b 443 -18 697 43 593 -18 m 551 438 b 421 574 542 521 493 574 b 290 438 351 574 304 519 m 307 1019 l 539 1019 l 539 822 l 307 822 "},"È":{"ha":928,"x_min":0,"x_max":0,"o":"m 585 1039 l 388 1039 l 182 1188 l 433 1264 m 86 972 l 868 972 l 868 743 l 353 743 l 353 596 l 819 596 l 819 383 l 353 383 l 353 229 l 875 229 l 875 0 l 86 0 "},"è":{"ha":842,"x_min":0,"x_max":0,"o":"m 443 -18 b 40 372 207 -18 40 139 l 40 375 b 419 768 40 594 197 768 b 799 357 679 768 799 578 b 797 303 799 340 799 321 l 294 303 b 457 179 315 221 375 179 b 624 256 519 179 569 203 l 769 135 b 443 -18 697 43 593 -18 m 551 438 b 421 574 542 521 493 574 b 290 438 351 574 304 519 m 136 999 l 381 1078 l 524 822 l 340 822 "},"Ē":{"ha":928,"x_min":0,"x_max":0,"o":"m 203 1211 l 756 1211 l 756 1049 l 203 1049 m 86 972 l 868 972 l 868 743 l 353 743 l 353 596 l 819 596 l 819 383 l 353 383 l 353 229 l 875 229 l 875 0 l 86 0 "},"ē":{"ha":842,"x_min":0,"x_max":0,"o":"m 443 -18 b 40 372 207 -18 40 139 l 40 375 b 419 768 40 594 197 768 b 799 357 679 768 799 578 b 797 303 799 340 799 321 l 294 303 b 457 179 315 221 375 179 b 624 256 519 179 569 203 l 769 135 b 443 -18 697 43 593 -18 m 551 438 b 421 574 542 521 493 574 b 290 438 351 574 304 519 m 163 990 l 683 990 l 683 832 l 163 832 "},"Ę":{"ha":928,"x_min":0,"x_max":0,"o":"m 86 972 l 868 972 l 868 743 l 353 743 l 353 596 l 819 596 l 819 383 l 353 383 l 353 229 l 875 229 l 875 0 l 804 0 b 774 -65 782 -25 774 -46 b 874 -115 774 -101 804 -118 l 874 -228 b 581 -112 694 -253 581 -197 b 636 0 581 -74 600 -36 l 86 0 "},"ę":{"ha":840,"x_min":0,"x_max":0,"o":"m 443 -18 b 40 372 207 -18 40 139 l 40 375 b 419 768 40 594 197 768 b 799 357 679 768 799 578 b 797 303 799 340 799 321 l 294 303 b 457 179 315 221 375 179 b 624 256 519 179 569 203 l 769 135 b 681 43 739 100 717 76 b 615 -60 631 -4 615 -33 b 717 -115 615 -101 647 -118 l 717 -228 b 424 -117 536 -253 424 -197 b 472 -17 424 -82 440 -50 b 443 -18 464 -17 451 -18 m 551 438 b 421 574 542 521 493 574 b 290 438 351 574 304 519 "},"Ð":{"ha":1132,"x_min":0,"x_max":0,"o":"m 154 383 l 43 383 l 43 596 l 154 596 l 154 972 l 531 972 b 1078 492 876 972 1078 772 l 1078 489 b 525 0 1078 208 874 0 l 154 0 m 533 232 b 803 485 699 232 803 325 l 803 488 b 533 742 803 647 699 742 l 415 742 l 415 593 l 581 593 l 581 386 l 415 386 l 415 232 "},"ð":{"ha":913,"x_min":0,"x_max":0,"o":"m 676 882 b 869 425 789 760 869 604 l 869 422 b 454 -18 869 171 708 -18 b 42 388 213 -18 42 151 l 42 390 b 361 750 42 600 178 750 b 536 699 436 750 483 731 b 431 826 510 739 474 783 l 264 788 l 224 903 l 321 925 b 197 1014 281 957 238 988 l 529 1014 l 571 981 l 726 1017 l 765 903 m 457 206 b 615 371 553 206 615 281 l 615 374 b 454 543 615 467 547 543 b 297 376 358 543 297 468 l 297 374 b 457 206 297 282 364 206 "},"Ğ":{"ha":1068,"x_min":0,"x_max":0,"o":"m 567 1050 b 293 1260 414 1050 311 1121 l 453 1260 b 567 1197 469 1219 503 1197 b 682 1260 632 1197 664 1219 l 840 1260 b 567 1050 822 1121 721 1050 m 582 -19 b 53 483 279 -19 53 189 l 53 486 b 576 992 53 769 275 992 b 971 850 747 992 868 939 l 813 660 b 578 751 743 718 674 751 b 329 485 438 751 329 633 l 329 482 b 593 213 329 325 439 213 b 749 253 658 213 708 226 l 749 371 l 557 371 l 557 568 l 1004 568 l 1004 131 b 582 -19 901 46 758 -19 "},"ğ":{"ha":939,"x_min":0,"x_max":0,"o":"m 440 -225 b 64 -139 294 -225 172 -194 l 149 36 b 411 -35 229 -8 310 -35 b 608 150 543 -35 608 31 l 608 179 b 376 67 556 118 486 67 b 43 415 192 67 43 200 l 43 418 b 368 768 43 635 194 768 b 604 663 481 768 547 722 l 604 751 l 868 751 l 868 181 b 771 -119 868 43 838 -53 b 440 -225 703 -187 597 -225 m 456 269 b 608 415 544 269 608 332 l 608 418 b 456 563 608 501 544 563 b 301 417 365 563 301 500 l 301 414 b 456 269 301 331 365 269 m 482 819 b 208 1050 328 819 222 903 l 363 1050 b 482 969 379 1001 413 969 b 601 1050 551 969 585 1001 l 756 1050 b 482 819 743 903 636 819 "},"Ģ":{"ha":1068,"x_min":0,"x_max":0,"o":"m 442 -357 b 549 -267 522 -350 553 -319 l 454 -267 l 454 -78 l 679 -78 l 679 -232 b 453 -436 679 -378 596 -431 m 582 -19 b 53 483 279 -19 53 189 l 53 486 b 576 992 53 769 275 992 b 971 850 747 992 868 939 l 813 660 b 578 751 743 718 674 751 b 329 485 438 751 329 633 l 329 482 b 593 213 329 325 439 213 b 749 253 658 213 708 226 l 749 371 l 557 371 l 557 568 l 1004 568 l 1004 131 b 582 -19 901 46 758 -19 "},"ģ":{"ha":939,"x_min":0,"x_max":0,"o":"m 603 1100 b 496 1010 522 1093 492 1063 l 590 1010 l 590 821 l 365 821 l 365 975 b 592 1179 365 1121 449 1174 m 440 -225 b 64 -139 294 -225 172 -194 l 149 36 b 411 -35 229 -8 310 -35 b 608 150 543 -35 608 31 l 608 179 b 376 67 556 118 486 67 b 43 415 192 67 43 200 l 43 418 b 368 768 43 635 194 768 b 604 663 481 768 547 722 l 604 751 l 868 751 l 868 181 b 771 -119 868 43 838 -53 b 440 -225 703 -187 597 -225 m 456 269 b 608 415 544 269 608 332 l 608 418 b 456 563 608 501 544 563 b 301 417 365 563 301 500 l 301 414 b 456 269 301 331 365 269 "},"Ġ":{"ha":1068,"x_min":0,"x_max":0,"o":"m 447 1244 l 683 1244 l 683 1053 l 447 1053 m 582 -19 b 53 483 279 -19 53 189 l 53 486 b 576 992 53 769 275 992 b 971 850 747 992 868 939 l 813 660 b 578 751 743 718 674 751 b 329 485 438 751 329 633 l 329 482 b 593 213 329 325 439 213 b 749 253 658 213 708 226 l 749 371 l 557 371 l 557 568 l 1004 568 l 1004 131 b 582 -19 901 46 758 -19 "},"ġ":{"ha":939,"x_min":0,"x_max":0,"o":"m 440 -225 b 64 -139 294 -225 172 -194 l 149 36 b 411 -35 229 -8 310 -35 b 608 150 543 -35 608 31 l 608 179 b 376 67 556 118 486 67 b 43 415 192 67 43 200 l 43 418 b 368 768 43 635 194 768 b 604 663 481 768 547 722 l 604 751 l 868 751 l 868 181 b 771 -119 868 43 838 -53 b 440 -225 703 -187 597 -225 m 456 269 b 608 415 544 269 608 332 l 608 418 b 456 563 608 501 544 563 b 301 417 365 563 301 500 l 301 414 b 456 269 301 331 365 269 m 367 1019 l 599 1019 l 599 822 l 367 822 "},"Ħ":{"ha":1057,"x_min":0,"x_max":0,"o":"m 3 864 l 86 864 l 86 972 l 356 972 l 356 864 l 701 864 l 701 972 l 971 972 l 971 864 l 1054 864 l 1054 718 l 971 718 l 971 0 l 701 0 l 701 369 l 356 369 l 356 0 l 86 0 l 86 718 l 3 718 m 701 608 l 701 721 l 356 721 l 356 608 "},"ħ":{"ha":881,"x_min":0,"x_max":0,"o":"m 71 825 l -17 825 l -17 950 l 71 950 l 71 1014 l 335 1014 l 335 950 l 543 950 l 543 825 l 335 825 l 335 649 b 560 768 383 711 453 768 b 815 492 719 768 815 663 l 815 0 l 551 0 l 551 407 b 446 533 551 489 508 533 b 335 407 382 533 335 489 l 335 0 l 71 0 "},"Í":{"ha":454,"x_min":0,"x_max":0,"o":"m 92 972 l 363 972 l 363 0 l 92 0 m 274 1264 l 525 1188 l 319 1039 l 124 1039 "},"í":{"ha":418,"x_min":0,"x_max":0,"o":"m 253 1072 l 497 993 l 292 817 l 108 817 m 76 751 l 340 751 l 340 0 l 76 0 "},"Ĭ":{"ha":454,"x_min":0,"x_max":0,"o":"m 92 972 l 363 972 l 363 0 l 92 0 m 228 1036 b -46 1246 75 1036 -28 1107 l 114 1246 b 228 1183 131 1206 164 1183 b 343 1246 293 1183 325 1206 l 501 1246 b 228 1036 483 1107 382 1036 "},"ĭ":{"ha":418,"x_min":0,"x_max":0,"o":"m 76 751 l 340 751 l 340 0 l 76 0 m 208 814 b -65 1044 54 814 -51 897 l 89 1044 b 208 964 106 996 139 964 b 328 1044 278 964 311 996 l 482 1044 b 208 814 469 897 363 814 "},"Î":{"ha":454,"x_min":0,"x_max":0,"o":"m 92 972 l 363 972 l 363 0 l 92 0 m 111 1246 l 346 1246 l 517 1039 l 336 1039 l 226 1113 l 117 1039 l -60 1039 "},"î":{"ha":418,"x_min":0,"x_max":0,"o":"m 101 1044 l 315 1044 l 493 817 l 324 817 l 207 901 l 90 817 l -76 817 m 76 751 l 340 751 l 340 0 l 76 0 "},"Ï":{"ha":454,"x_min":0,"x_max":0,"o":"m 92 972 l 363 972 l 363 0 l 92 0 m 267 1231 l 496 1231 l 496 1039 l 267 1039 m -40 1231 l 189 1231 l 189 1039 l -40 1039 "},"ï":{"ha":418,"x_min":0,"x_max":0,"o":"m 242 1014 l 467 1014 l 467 817 l 242 817 m -49 1014 l 175 1014 l 175 817 l -49 817 m 76 751 l 340 751 l 340 0 l 76 0 "},"İ":{"ha":454,"x_min":0,"x_max":0,"o":"m 92 972 l 363 972 l 363 0 l 92 0 m 110 1231 l 346 1231 l 346 1039 l 110 1039 "},"ı":{"ha":417,"x_min":0,"x_max":0,"o":"m 76 751 l 340 751 l 340 0 l 76 0 "},"Ì":{"ha":454,"x_min":0,"x_max":0,"o":"m 92 972 l 363 972 l 363 0 l 92 0 m 332 1039 l 135 1039 l -71 1188 l 181 1264 "},"ì":{"ha":418,"x_min":0,"x_max":0,"o":"m 76 751 l 340 751 l 340 0 l 76 0 m -78 993 l 167 1072 l 310 817 l 126 817 "},"Ī":{"ha":454,"x_min":0,"x_max":0,"o":"m 92 972 l 363 972 l 363 0 l 92 0 m -49 1211 l 504 1211 l 504 1049 l -49 1049 "},"ī":{"ha":418,"x_min":0,"x_max":0,"o":"m 76 751 l 340 751 l 340 0 l 76 0 m -51 985 l 469 985 l 469 826 l -51 826 "},"Į":{"ha":454,"x_min":0,"x_max":0,"o":"m 92 972 l 363 972 l 363 0 l 313 0 b 282 -65 290 -25 282 -46 b 382 -115 282 -101 313 -118 l 382 -228 b 89 -112 203 -253 89 -197 b 144 0 89 -74 108 -36 l 92 0 "},"į":{"ha":418,"x_min":0,"x_max":0,"o":"m 76 751 l 340 751 l 340 0 l 290 0 b 260 -65 268 -25 260 -46 b 360 -115 260 -101 290 -118 l 360 -228 b 67 -112 181 -253 67 -197 b 122 0 67 -74 86 -36 l 76 0 m 71 1014 l 346 1014 l 346 819 l 71 819 "},"Ķ":{"ha":1014,"x_min":0,"x_max":0,"o":"m 385 -344 b 492 -254 465 -337 496 -307 l 397 -254 l 397 -65 l 622 -65 l 622 -219 b 396 -424 622 -365 539 -418 m 86 972 l 356 972 l 356 578 l 690 972 l 1010 972 l 642 554 l 1022 0 l 699 0 l 454 361 l 356 251 l 356 0 l 86 0 "},"ķ":{"ha":838,"x_min":0,"x_max":0,"o":"m 310 -347 b 417 -257 390 -340 421 -310 l 322 -257 l 322 -68 l 547 -68 l 547 -222 b 321 -426 547 -368 464 -421 m 71 1014 l 335 1014 l 335 500 l 539 751 l 838 751 l 576 450 l 844 0 l 554 0 l 403 256 l 335 176 l 335 0 l 71 0 "},"Ĺ":{"ha":857,"x_min":0,"x_max":0,"o":"m 294 1264 l 546 1188 l 340 1039 l 144 1039 m 86 972 l 356 972 l 356 236 l 826 236 l 826 0 l 86 0 "},"ĺ":{"ha":418,"x_min":0,"x_max":0,"o":"m 257 1292 l 508 1215 l 303 1067 l 107 1067 m 76 1014 l 340 1014 l 340 0 l 76 0 "},"Ľ":{"ha":857,"x_min":0,"x_max":0,"o":"m 451 972 l 633 972 l 633 968 l 543 674 l 436 674 m 86 972 l 356 972 l 356 236 l 826 236 l 826 0 l 86 0 "},"ľ":{"ha":418,"x_min":0,"x_max":0,"o":"m 419 1014 l 601 1014 l 601 1010 l 511 715 l 404 715 m 76 1014 l 340 1014 l 340 0 l 76 0 "},"Ļ":{"ha":857,"x_min":0,"x_max":0,"o":"m 332 -347 b 439 -257 413 -340 443 -310 l 344 -257 l 344 -68 l 569 -68 l 569 -222 b 343 -426 569 -368 486 -421 m 86 972 l 356 972 l 356 236 l 826 236 l 826 0 l 86 0 "},"ļ":{"ha":418,"x_min":0,"x_max":0,"o":"m 85 -347 b 192 -257 165 -340 196 -310 l 97 -257 l 97 -68 l 322 -68 l 322 -222 b 96 -426 322 -368 239 -421 m 76 1014 l 340 1014 l 340 0 l 76 0 "},"Ŀ":{"ha":857,"x_min":0,"x_max":0,"o":"m 550 669 l 771 669 l 771 454 l 550 454 m 86 972 l 356 972 l 356 236 l 826 236 l 826 0 l 86 0 "},"ŀ":{"ha":582,"x_min":0,"x_max":0,"o":"m 407 632 l 593 632 l 593 419 l 407 419 m 76 1014 l 340 1014 l 340 0 l 76 0 "},"Ł":{"ha":919,"x_min":0,"x_max":0,"o":"m 418 429 l 418 236 l 889 236 l 889 0 l 149 0 l 149 313 l 43 268 l 43 510 l 149 554 l 149 972 l 418 972 l 418 669 l 622 757 l 622 517 "},"ł":{"ha":557,"x_min":0,"x_max":0,"o":"m 411 457 l 411 0 l 147 0 l 147 336 l 33 285 l 33 521 l 147 572 l 147 1014 l 411 1014 l 411 693 l 524 744 l 524 508 "},"Ń":{"ha":1090,"x_min":0,"x_max":0,"o":"m 592 1264 l 843 1188 l 638 1039 l 442 1039 m 86 972 l 338 972 l 738 458 l 738 972 l 1004 972 l 1004 0 l 768 0 l 353 533 l 353 0 l 86 0 "},"ń":{"ha":881,"x_min":0,"x_max":0,"o":"m 486 1078 l 731 999 l 525 822 l 342 822 m 71 751 l 335 751 l 335 646 b 560 768 383 708 453 768 b 815 492 719 768 815 663 l 815 0 l 551 0 l 551 407 b 446 533 551 489 508 533 b 335 407 382 533 335 489 l 335 0 l 71 0 "},"Ň":{"ha":1090,"x_min":0,"x_max":0,"o":"m 663 1039 l 428 1039 l 257 1246 l 436 1246 l 546 1172 l 656 1246 l 833 1246 m 86 972 l 338 972 l 738 458 l 738 972 l 1004 972 l 1004 0 l 768 0 l 353 533 l 353 0 l 86 0 "},"ň":{"ha":881,"x_min":0,"x_max":0,"o":"m 549 822 l 335 822 l 157 1050 l 326 1050 l 443 965 l 560 1050 l 726 1050 m 71 751 l 335 751 l 335 646 b 560 768 383 708 453 768 b 815 492 719 768 815 663 l 815 0 l 551 0 l 551 407 b 446 533 551 489 508 533 b 335 407 382 533 335 489 l 335 0 l 71 0 "},"Ņ":{"ha":1090,"x_min":0,"x_max":0,"o":"m 421 -344 b 528 -254 501 -337 532 -307 l 433 -254 l 433 -65 l 658 -65 l 658 -219 b 432 -424 658 -365 575 -418 m 86 972 l 338 972 l 738 458 l 738 972 l 1004 972 l 1004 0 l 768 0 l 353 533 l 353 0 l 86 0 "},"ņ":{"ha":881,"x_min":0,"x_max":0,"o":"m 318 -347 b 425 -257 399 -340 429 -310 l 331 -257 l 331 -68 l 556 -68 l 556 -222 b 329 -426 556 -368 472 -421 m 71 751 l 335 751 l 335 646 b 560 768 383 708 453 768 b 815 492 719 768 815 663 l 815 0 l 551 0 l 551 407 b 446 533 551 489 508 533 b 335 407 382 533 335 489 l 335 0 l 71 0 "},"Ñ":{"ha":1090,"x_min":0,"x_max":0,"o":"m 249 1063 b 424 1269 279 1200 328 1269 b 653 1215 507 1269 607 1215 b 725 1279 692 1215 707 1236 l 851 1244 b 678 1039 822 1107 772 1039 b 449 1093 594 1039 493 1093 b 375 1028 410 1093 393 1072 m 86 972 l 338 972 l 738 458 l 738 972 l 1004 972 l 1004 0 l 768 0 l 353 533 l 353 0 l 86 0 "},"ñ":{"ha":881,"x_min":0,"x_max":0,"o":"m 71 751 l 335 751 l 335 646 b 560 768 383 708 453 768 b 815 492 719 768 815 663 l 815 0 l 551 0 l 551 407 b 446 533 551 489 508 533 b 335 407 382 533 335 489 l 335 0 l 71 0 m 154 846 b 326 1053 185 983 232 1053 b 543 999 410 1053 499 999 b 614 1063 582 999 596 1019 l 740 1028 b 568 822 711 890 664 822 b 351 876 485 822 397 876 b 281 811 313 876 299 856 "},"Ó":{"ha":1154,"x_min":0,"x_max":0,"o":"m 624 1278 l 875 1201 l 669 1053 l 474 1053 m 575 -19 b 53 483 275 -19 53 204 l 53 486 b 578 992 53 765 278 992 b 1100 489 878 992 1100 768 l 1100 486 b 575 -19 1100 207 875 -19 m 578 224 b 825 483 726 224 825 343 l 825 486 b 575 749 825 626 724 749 b 329 489 428 749 329 629 l 329 486 b 578 224 329 346 431 224 "},"ó":{"ha":911,"x_min":0,"x_max":0,"o":"m 499 1078 l 743 999 l 538 822 l 354 822 m 454 -18 b 40 372 214 -18 40 158 l 40 375 b 457 768 40 589 215 768 b 871 378 697 768 871 592 l 871 375 b 454 -18 871 161 696 -18 m 457 206 b 614 372 553 206 614 282 l 614 375 b 454 544 614 467 547 544 b 297 378 358 544 297 468 l 297 375 b 457 206 297 283 364 206 "},"Ŏ":{"ha":1154,"x_min":0,"x_max":0,"o":"m 578 1050 b 304 1260 425 1050 322 1121 l 464 1260 b 578 1197 481 1219 514 1197 b 693 1260 643 1197 675 1219 l 851 1260 b 578 1050 833 1121 732 1050 m 575 -19 b 53 483 275 -19 53 204 l 53 486 b 578 992 53 765 278 992 b 1100 489 878 992 1100 768 l 1100 486 b 575 -19 1100 207 875 -19 m 578 224 b 825 483 726 224 825 343 l 825 486 b 575 749 825 626 724 749 b 329 489 428 749 329 629 l 329 486 b 578 224 329 346 431 224 "},"ŏ":{"ha":911,"x_min":0,"x_max":0,"o":"m 454 -18 b 40 372 214 -18 40 158 l 40 375 b 457 768 40 589 215 768 b 871 378 697 768 871 592 l 871 375 b 454 -18 871 161 696 -18 m 457 206 b 614 372 553 206 614 282 l 614 375 b 454 544 614 467 547 544 b 297 378 358 544 297 468 l 297 375 b 457 206 297 283 364 206 m 456 819 b 182 1050 301 819 196 903 l 336 1050 b 456 969 353 1001 386 969 b 575 1050 525 969 558 1001 l 729 1050 b 456 819 717 903 610 819 "},"Ô":{"ha":1154,"x_min":0,"x_max":0,"o":"m 575 -19 b 53 483 275 -19 53 204 l 53 486 b 578 992 53 765 278 992 b 1100 489 878 992 1100 768 l 1100 486 b 575 -19 1100 207 875 -19 m 578 224 b 825 483 726 224 825 343 l 825 486 b 575 749 825 626 724 749 b 329 489 428 749 329 629 l 329 486 b 578 224 329 346 431 224 m 460 1260 l 694 1260 l 865 1053 l 685 1053 l 575 1126 l 465 1053 l 289 1053 "},"ô":{"ha":911,"x_min":0,"x_max":0,"o":"m 349 1050 l 563 1050 l 740 822 l 571 822 l 454 907 l 338 822 l 171 822 m 454 -18 b 40 372 214 -18 40 158 l 40 375 b 457 768 40 589 215 768 b 871 378 697 768 871 592 l 871 375 b 454 -18 871 161 696 -18 m 457 206 b 614 372 553 206 614 282 l 614 375 b 454 544 614 467 547 544 b 297 378 358 544 297 468 l 297 375 b 457 206 297 283 364 206 "},"Ö":{"ha":1154,"x_min":0,"x_max":0,"o":"m 615 1244 l 844 1244 l 844 1053 l 615 1053 m 308 1244 l 538 1244 l 538 1053 l 308 1053 m 575 -19 b 53 483 275 -19 53 204 l 53 486 b 578 992 53 765 278 992 b 1100 489 878 992 1100 768 l 1100 486 b 575 -19 1100 207 875 -19 m 578 224 b 825 483 726 224 825 343 l 825 486 b 575 749 825 626 724 749 b 329 489 428 749 329 629 l 329 486 b 578 224 329 346 431 224 "},"ö":{"ha":911,"x_min":0,"x_max":0,"o":"m 489 1019 l 714 1019 l 714 822 l 489 822 m 199 1019 l 422 1019 l 422 822 l 199 822 m 454 -18 b 40 372 214 -18 40 158 l 40 375 b 457 768 40 589 215 768 b 871 378 697 768 871 592 l 871 375 b 454 -18 871 161 696 -18 m 457 206 b 614 372 553 206 614 282 l 614 375 b 454 544 614 467 547 544 b 297 378 358 544 297 468 l 297 375 b 457 206 297 283 364 206 "},"Œ":{"ha":1497,"x_min":0,"x_max":0,"o":"m 601 0 b 53 481 256 0 53 200 l 53 483 b 607 972 53 765 257 972 l 1438 972 l 1438 743 l 953 743 l 953 596 l 1389 596 l 1389 383 l 953 383 l 953 229 l 1444 229 l 1444 0 l 601 0 m 686 235 l 686 738 l 594 738 b 329 488 436 738 329 644 l 329 485 b 594 235 329 331 436 235 "},"œ":{"ha":1407,"x_min":0,"x_max":0,"o":"m 444 -18 b 40 372 217 -18 40 158 l 40 375 b 450 768 40 589 218 768 b 728 656 564 768 661 725 b 990 768 792 726 883 768 b 1365 357 1244 768 1365 578 b 1363 303 1365 340 1364 321 l 861 303 b 1022 179 882 221 942 179 b 1190 256 1086 179 1136 203 l 1336 135 b 1014 -18 1263 43 1160 -18 b 725 94 893 -18 793 24 b 444 -18 657 25 558 -18 m 1118 438 b 988 574 1108 521 1060 574 b 857 438 917 574 871 519 m 453 206 b 607 372 547 206 607 282 l 607 375 b 450 544 607 467 542 544 b 297 378 357 544 297 467 l 297 375 b 453 206 297 283 363 206 "},"Ò":{"ha":1154,"x_min":0,"x_max":0,"o":"m 682 1053 l 485 1053 l 279 1201 l 531 1278 m 575 -19 b 53 483 275 -19 53 204 l 53 486 b 578 992 53 765 278 992 b 1100 489 878 992 1100 768 l 1100 486 b 575 -19 1100 207 875 -19 m 578 224 b 825 483 726 224 825 343 l 825 486 b 575 749 825 626 724 749 b 329 489 428 749 329 629 l 329 486 b 578 224 329 346 431 224 "},"ò":{"ha":911,"x_min":0,"x_max":0,"o":"m 454 -18 b 40 372 214 -18 40 158 l 40 375 b 457 768 40 589 215 768 b 871 378 697 768 871 592 l 871 375 b 454 -18 871 161 696 -18 m 457 206 b 614 372 553 206 614 282 l 614 375 b 454 544 614 467 547 544 b 297 378 358 544 297 468 l 297 375 b 457 206 297 283 364 206 m 168 999 l 413 1078 l 556 822 l 372 822 "},"Ő":{"ha":1154,"x_min":0,"x_max":0,"o":"m 575 -19 b 53 483 275 -19 53 204 l 53 486 b 578 992 53 765 278 992 b 1100 489 878 992 1100 768 l 1100 486 b 575 -19 1100 207 875 -19 m 578 224 b 825 483 726 224 825 343 l 825 486 b 575 749 825 626 724 749 b 329 489 428 749 329 629 l 329 486 b 578 224 329 346 431 224 m 693 1189 l 511 1053 l 333 1053 l 476 1278 l 703 1203 l 750 1278 l 983 1201 l 785 1053 l 607 1053 "},"ő":{"ha":911,"x_min":0,"x_max":0,"o":"m 454 -18 b 40 372 214 -18 40 158 l 40 375 b 457 768 40 589 215 768 b 871 378 697 768 871 592 l 871 375 b 454 -18 871 161 696 -18 m 353 1078 l 579 1000 l 621 1078 l 853 999 l 653 822 l 485 822 l 572 988 l 386 822 l 218 822 m 457 206 b 614 372 553 206 614 282 l 614 375 b 454 544 614 467 547 544 b 297 378 358 544 297 468 l 297 375 b 457 206 297 283 364 206 "},"Ō":{"ha":1154,"x_min":0,"x_max":0,"o":"m 300 1225 l 853 1225 l 853 1063 l 300 1063 m 575 -19 b 53 483 275 -19 53 204 l 53 486 b 578 992 53 765 278 992 b 1100 489 878 992 1100 768 l 1100 486 b 575 -19 1100 207 875 -19 m 578 224 b 825 483 726 224 825 343 l 825 486 b 575 749 825 626 724 749 b 329 489 428 749 329 629 l 329 486 b 578 224 329 346 431 224 "},"ō":{"ha":911,"x_min":0,"x_max":0,"o":"m 196 990 l 717 990 l 717 832 l 196 832 m 454 -18 b 40 372 214 -18 40 158 l 40 375 b 457 768 40 589 215 768 b 871 378 697 768 871 592 l 871 375 b 454 -18 871 161 696 -18 m 457 206 b 614 372 553 206 614 282 l 614 375 b 454 544 614 467 547 544 b 297 378 358 544 297 468 l 297 375 b 457 206 297 283 364 206 "},"Ø":{"ha":1154,"x_min":0,"x_max":0,"o":"m 575 -19 b 300 54 474 -19 379 7 l 246 -7 l 42 -7 l 181 149 b 53 483 100 238 53 354 l 53 486 b 578 992 53 765 278 992 b 853 918 681 992 775 965 l 907 979 l 1111 979 l 974 822 b 1100 489 1053 735 1100 618 l 1100 486 b 575 -19 1100 207 875 -19 m 688 728 b 575 754 656 744 618 754 b 325 489 425 754 325 632 l 325 486 b 358 351 325 438 336 392 m 578 218 b 829 483 729 218 829 340 l 829 486 b 796 621 829 535 818 581 l 465 244 b 578 218 499 228 536 218 "},"ø":{"ha":911,"x_min":0,"x_max":0,"o":"m 454 -18 b 243 35 375 -18 304 1 l 204 -7 l 19 -7 l 135 121 b 40 372 75 189 40 276 l 40 375 b 457 768 40 589 215 768 b 667 715 535 768 607 749 l 707 758 l 892 758 b 776 631 892 758 804 663 b 871 378 836 563 871 475 l 871 375 b 454 -18 871 161 696 -18 m 517 543 b 454 556 499 551 476 556 b 286 378 353 556 286 474 l 286 375 b 300 303 286 350 292 325 m 457 194 b 625 372 558 194 625 276 l 625 375 b 611 447 625 400 619 425 l 396 206 b 457 194 414 199 435 194 "},"Ǿ":{"ha":1154,"x_min":0,"x_max":0,"o":"m 575 -19 b 300 54 474 -19 379 7 l 246 -7 l 42 -7 l 181 149 b 53 483 100 238 53 354 l 53 486 b 578 992 53 765 278 992 b 853 918 681 992 775 965 l 907 979 l 1111 979 l 974 822 b 1100 489 1053 735 1100 618 l 1100 486 b 575 -19 1100 207 875 -19 m 688 728 b 575 754 656 744 618 754 b 325 489 425 754 325 632 l 325 486 b 358 351 325 438 336 392 m 578 218 b 829 483 729 218 829 340 l 829 486 b 796 621 829 535 818 581 l 465 244 b 578 218 499 228 536 218 m 624 1278 l 875 1201 l 669 1053 l 474 1053 "},"ǿ":{"ha":911,"x_min":0,"x_max":0,"o":"m 454 -18 b 243 35 375 -18 304 1 l 204 -7 l 19 -7 l 135 121 b 40 372 75 189 40 276 l 40 375 b 457 768 40 589 215 768 b 667 715 535 768 607 749 l 707 758 l 892 758 b 776 631 892 758 804 663 b 871 378 836 563 871 475 l 871 375 b 454 -18 871 161 696 -18 m 517 543 b 454 556 499 551 476 556 b 286 378 353 556 286 474 l 286 375 b 300 303 286 350 292 325 m 457 194 b 625 372 558 194 625 276 l 625 375 b 611 447 625 400 619 425 l 396 206 b 457 194 414 199 435 194 m 499 1078 l 743 999 l 538 822 l 354 822 "},"Õ":{"ha":1154,"x_min":0,"x_max":0,"o":"m 281 1076 b 456 1283 311 1214 360 1283 b 685 1229 539 1283 639 1229 b 757 1293 724 1229 739 1250 l 883 1258 b 710 1053 854 1121 804 1053 b 481 1107 626 1053 525 1107 b 407 1042 442 1107 425 1086 m 575 -19 b 53 483 275 -19 53 204 l 53 486 b 578 992 53 765 278 992 b 1100 489 878 992 1100 768 l 1100 486 b 575 -19 1100 207 875 -19 m 578 224 b 825 483 726 224 825 343 l 825 486 b 575 749 825 626 724 749 b 329 489 428 749 329 629 l 329 486 b 578 224 329 346 431 224 "},"õ":{"ha":911,"x_min":0,"x_max":0,"o":"m 454 -18 b 40 372 214 -18 40 158 l 40 375 b 457 768 40 589 215 768 b 871 378 697 768 871 592 l 871 375 b 454 -18 871 161 696 -18 m 457 206 b 614 372 553 206 614 282 l 614 375 b 454 544 614 467 547 544 b 297 378 358 544 297 468 l 297 375 b 457 206 297 283 364 206 m 167 846 b 339 1053 197 983 244 1053 b 556 999 422 1053 511 999 b 626 1063 594 999 608 1019 l 753 1028 b 581 822 724 890 676 822 b 364 876 497 822 410 876 b 293 811 325 876 311 856 "},"Ŕ":{"ha":999,"x_min":0,"x_max":0,"o":"m 86 972 l 546 972 b 863 867 694 972 797 933 b 949 640 919 811 949 736 l 949 638 b 749 339 949 489 869 390 l 981 0 l 669 0 l 474 294 l 356 294 l 356 0 l 86 0 m 533 506 b 678 621 625 506 678 550 l 678 624 b 532 739 678 700 622 739 l 356 739 l 356 506 m 533 1264 l 785 1188 l 579 1039 l 383 1039 "},"ŕ":{"ha":594,"x_min":0,"x_max":0,"o":"m 361 1072 l 606 993 l 400 817 l 217 817 m 71 751 l 335 751 l 335 600 b 572 764 378 703 447 769 l 572 486 l 550 486 b 335 233 413 486 335 407 l 335 0 l 71 0 "},"Ř":{"ha":999,"x_min":0,"x_max":0,"o":"m 86 972 l 546 972 b 863 867 694 972 797 933 b 949 640 919 811 949 736 l 949 638 b 749 339 949 489 869 390 l 981 0 l 669 0 l 474 294 l 356 294 l 356 0 l 86 0 m 606 1039 l 371 1039 l 200 1246 l 379 1246 l 489 1172 l 599 1246 l 776 1246 m 533 506 b 678 621 625 506 678 550 l 678 624 b 532 739 678 700 622 739 l 356 739 l 356 506 "},"ř":{"ha":594,"x_min":0,"x_max":0,"o":"m 425 817 l 211 817 l 33 1044 l 203 1044 l 319 960 l 436 1044 l 603 1044 m 71 751 l 335 751 l 335 600 b 572 764 378 703 447 769 l 572 486 l 550 486 b 335 233 413 486 335 407 l 335 0 l 71 0 "},"Ŗ":{"ha":999,"x_min":0,"x_max":0,"o":"m 86 972 l 546 972 b 863 867 694 972 797 933 b 949 640 919 811 949 736 l 949 638 b 749 339 949 489 869 390 l 981 0 l 669 0 l 474 294 l 356 294 l 356 0 l 86 0 m 533 506 b 678 621 625 506 678 550 l 678 624 b 532 739 678 700 622 739 l 356 739 l 356 506 m 367 -344 b 474 -254 447 -337 478 -307 l 379 -254 l 379 -65 l 604 -65 l 604 -219 b 378 -424 604 -365 521 -418 "},"ŗ":{"ha":594,"x_min":0,"x_max":0,"o":"m 86 -347 b 193 -257 167 -340 197 -310 l 99 -257 l 99 -68 l 324 -68 l 324 -222 b 97 -426 324 -368 240 -421 m 71 751 l 335 751 l 335 600 b 572 764 378 703 447 769 l 572 486 l 550 486 b 335 233 413 486 335 407 l 335 0 l 71 0 "},"Ś":{"ha":906,"x_min":0,"x_max":0,"o":"m 468 -17 b 13 144 296 -17 132 38 l 163 324 b 478 207 258 247 365 207 b 589 274 550 207 589 232 l 589 276 b 425 369 589 317 557 339 b 58 675 218 417 58 475 l 58 678 b 435 989 58 858 201 989 b 835 860 600 989 729 944 l 700 669 b 428 765 611 732 514 765 b 331 703 363 765 331 738 l 331 700 b 499 606 331 656 364 636 b 861 303 722 557 861 485 l 861 300 b 468 -17 861 101 704 -17 m 501 1278 l 753 1201 l 547 1053 l 351 1053 "},"ś":{"ha":714,"x_min":0,"x_max":0,"o":"m 406 1078 l 650 999 l 444 822 l 261 822 m 369 -17 b 14 94 243 -17 118 19 l 113 254 b 371 168 199 197 293 168 b 438 208 417 168 438 182 l 438 211 b 317 275 438 240 396 253 b 50 515 168 314 50 364 l 50 518 b 351 767 50 678 178 767 b 661 679 461 767 575 735 l 571 513 b 349 582 493 556 408 582 b 288 546 308 582 288 567 l 288 543 b 410 476 288 514 331 500 b 676 238 558 435 676 383 l 676 235 b 369 -17 676 69 553 -17 "},"Š":{"ha":906,"x_min":0,"x_max":0,"o":"m 468 -17 b 13 144 296 -17 132 38 l 163 324 b 478 207 258 247 365 207 b 589 274 550 207 589 232 l 589 276 b 425 369 589 317 557 339 b 58 675 218 417 58 475 l 58 678 b 435 989 58 858 201 989 b 835 860 600 989 729 944 l 700 669 b 428 765 611 732 514 765 b 331 703 363 765 331 738 l 331 700 b 499 606 331 656 364 636 b 861 303 722 557 861 485 l 861 300 b 468 -17 861 101 704 -17 m 574 1053 l 339 1053 l 168 1260 l 347 1260 l 457 1186 l 567 1260 l 744 1260 "},"š":{"ha":714,"x_min":0,"x_max":0,"o":"m 468 822 l 254 822 l 76 1050 l 246 1050 l 363 965 l 479 1050 l 646 1050 m 369 -17 b 14 94 243 -17 118 19 l 113 254 b 371 168 199 197 293 168 b 438 208 417 168 438 182 l 438 211 b 317 275 438 240 396 253 b 50 515 168 314 50 364 l 50 518 b 351 767 50 678 178 767 b 661 679 461 767 575 735 l 571 513 b 349 582 493 556 408 582 b 288 546 308 582 288 567 l 288 543 b 410 476 288 514 331 500 b 676 238 558 435 676 383 l 676 235 b 369 -17 676 69 553 -17 "},"Ş":{"ha":906,"x_min":0,"x_max":0,"o":"m 244 -151 l 350 -7 b 13 144 222 11 104 63 l 163 324 b 478 207 258 247 365 207 b 589 274 550 207 589 232 l 589 276 b 425 369 589 317 557 339 b 58 675 218 417 58 475 l 58 678 b 435 989 58 858 201 989 b 835 860 600 989 729 944 l 700 669 b 428 765 611 732 514 765 b 331 703 363 765 331 738 l 331 700 b 499 606 331 656 364 636 b 861 303 722 557 861 485 l 861 300 b 532 -12 861 119 732 7 l 453 -240 "},"ş":{"ha":714,"x_min":0,"x_max":0,"o":"m 142 -151 l 249 -6 b 14 94 165 10 85 43 l 113 254 b 371 168 199 197 293 168 b 438 208 417 168 438 182 l 438 211 b 317 275 438 240 396 253 b 50 515 168 314 50 364 l 50 518 b 351 767 50 678 178 767 b 661 679 461 767 575 735 l 571 513 b 349 582 493 556 408 582 b 288 546 308 582 288 567 l 288 543 b 410 476 288 514 331 500 b 676 238 558 435 676 383 l 676 235 b 429 -12 676 88 579 4 l 350 -240 "},"Ș":{"ha":906,"x_min":0,"x_max":0,"o":"m 332 -357 b 439 -267 413 -350 443 -319 l 344 -267 l 344 -78 l 569 -78 l 569 -232 b 343 -436 569 -378 486 -431 m 468 -17 b 13 144 296 -17 132 38 l 163 324 b 478 207 258 247 365 207 b 589 274 550 207 589 232 l 589 276 b 425 369 589 317 557 339 b 58 675 218 417 58 475 l 58 678 b 435 989 58 858 201 989 b 835 860 600 989 729 944 l 700 669 b 428 765 611 732 514 765 b 331 703 363 765 331 738 l 331 700 b 499 606 331 656 364 636 b 861 303 722 557 861 485 l 861 300 b 468 -17 861 101 704 -17 "},"ș":{"ha":714,"x_min":0,"x_max":0,"o":"m 238 -353 b 344 -262 318 -346 349 -315 l 250 -262 l 250 -74 l 475 -74 l 475 -228 b 249 -432 475 -374 392 -426 m 369 -17 b 14 94 243 -17 118 19 l 113 254 b 371 168 199 197 293 168 b 438 208 417 168 438 182 l 438 211 b 317 275 438 240 396 253 b 50 515 168 314 50 364 l 50 518 b 351 767 50 678 178 767 b 661 679 461 767 575 735 l 571 513 b 349 582 493 556 408 582 b 288 546 308 582 288 567 l 288 543 b 410 476 288 514 331 500 b 676 238 558 435 676 383 l 676 235 b 369 -17 676 69 553 -17 "},"Ť":{"ha":917,"x_min":0,"x_max":0,"o":"m 576 1039 l 342 1039 l 171 1246 l 350 1246 l 460 1172 l 569 1246 l 747 1246 m 324 736 l 32 736 l 32 972 l 885 972 l 885 736 l 593 736 l 593 0 l 324 0 "},"ť":{"ha":599,"x_min":0,"x_max":0,"o":"m 464 1111 l 646 1111 l 646 1107 l 556 813 l 449 813 m 369 -15 b 117 233 211 -15 117 54 l 117 539 l 28 539 l 28 751 l 117 751 l 117 942 l 381 942 l 381 751 l 556 751 l 556 539 l 381 539 l 381 285 b 453 210 381 232 404 210 b 553 235 488 210 521 219 l 553 28 b 369 -15 506 1 443 -15 "},"Ţ":{"ha":917,"x_min":0,"x_max":0,"o":"m 335 -347 b 442 -257 415 -340 446 -310 l 347 -257 l 347 -68 l 572 -68 l 572 -222 b 346 -426 572 -368 489 -421 m 324 736 l 32 736 l 32 972 l 885 972 l 885 736 l 593 736 l 593 0 l 324 0 "},"ţ":{"ha":599,"x_min":0,"x_max":0,"o":"m 197 -353 b 304 -262 278 -346 308 -315 l 210 -262 l 210 -74 l 435 -74 l 435 -228 b 208 -432 435 -374 351 -426 m 369 -15 b 117 233 211 -15 117 54 l 117 539 l 28 539 l 28 751 l 117 751 l 117 942 l 381 942 l 381 751 l 556 751 l 556 539 l 381 539 l 381 285 b 453 210 381 232 404 210 b 553 235 488 210 521 219 l 553 28 b 369 -15 506 1 443 -15 "},"Þ":{"ha":947,"x_min":0,"x_max":0,"o":"m 86 972 l 356 972 l 356 833 l 504 833 b 907 496 749 833 907 711 l 907 493 b 490 146 907 264 731 146 l 356 146 l 356 0 l 86 0 m 485 361 b 639 488 579 361 639 411 l 639 490 b 483 618 639 574 579 618 l 356 618 l 356 361 "},"þ":{"ha":939,"x_min":0,"x_max":0,"o":"m 71 1014 l 335 1014 l 335 651 b 563 768 386 714 450 768 b 896 379 742 768 896 619 l 896 376 b 564 -17 896 132 742 -17 b 335 92 450 -17 383 35 l 335 -222 l 71 -222 m 483 204 b 636 375 568 204 636 274 l 636 378 b 482 547 636 476 568 547 b 329 378 397 547 329 476 l 329 375 b 483 204 329 275 397 204 "},"Ú":{"ha":1053,"x_min":0,"x_max":0,"o":"m 572 1264 l 824 1188 l 618 1039 l 422 1039 m 524 -18 b 74 426 247 -18 74 122 l 74 972 l 347 972 l 347 432 b 526 225 347 292 418 225 b 706 425 635 225 706 289 l 706 972 l 979 972 l 979 433 b 524 -18 979 119 800 -18 "},"ú":{"ha":881,"x_min":0,"x_max":0,"o":"m 481 1072 l 725 993 l 519 817 l 336 817 m 321 -17 b 65 260 161 -17 65 89 l 65 751 l 329 751 l 329 344 b 436 218 329 263 372 218 b 546 344 499 218 546 263 l 546 751 l 810 751 l 810 0 l 546 0 l 546 103 b 321 -17 497 40 428 -17 "},"Ŭ":{"ha":1053,"x_min":0,"x_max":0,"o":"m 526 1024 b 253 1233 374 1024 271 1094 l 413 1233 b 526 1171 429 1193 463 1171 b 642 1233 592 1171 624 1193 l 800 1233 b 526 1024 782 1094 681 1024 m 524 -18 b 74 426 247 -18 74 122 l 74 972 l 347 972 l 347 432 b 526 225 347 292 418 225 b 706 425 635 225 706 289 l 706 972 l 979 972 l 979 433 b 524 -18 979 119 800 -18 "},"ŭ":{"ha":881,"x_min":0,"x_max":0,"o":"m 321 -17 b 65 260 161 -17 65 89 l 65 751 l 329 751 l 329 344 b 436 218 329 263 372 218 b 546 344 499 218 546 263 l 546 751 l 810 751 l 810 0 l 546 0 l 546 103 b 321 -17 497 40 428 -17 m 436 814 b 163 1044 282 814 176 897 l 317 1044 b 436 964 333 996 367 964 b 556 1044 506 964 539 996 l 710 1044 b 436 814 697 897 590 814 "},"Û":{"ha":1053,"x_min":0,"x_max":0,"o":"m 524 -18 b 74 426 247 -18 74 122 l 74 972 l 347 972 l 347 432 b 526 225 347 292 418 225 b 706 425 635 225 706 289 l 706 972 l 979 972 l 979 433 b 524 -18 979 119 800 -18 m 410 1246 l 644 1246 l 815 1039 l 635 1039 l 525 1113 l 415 1039 l 239 1039 "},"û":{"ha":881,"x_min":0,"x_max":0,"o":"m 329 1044 l 543 1044 l 721 817 l 551 817 l 435 901 l 318 817 l 151 817 m 321 -17 b 65 260 161 -17 65 89 l 65 751 l 329 751 l 329 344 b 436 218 329 263 372 218 b 546 344 499 218 546 263 l 546 751 l 810 751 l 810 0 l 546 0 l 546 103 b 321 -17 497 40 428 -17 "},"Ü":{"ha":1053,"x_min":0,"x_max":0,"o":"m 565 1231 l 794 1231 l 794 1039 l 565 1039 m 258 1231 l 488 1231 l 488 1039 l 258 1039 m 524 -18 b 74 426 247 -18 74 122 l 74 972 l 347 972 l 347 432 b 526 225 347 292 418 225 b 706 425 635 225 706 289 l 706 972 l 979 972 l 979 433 b 524 -18 979 119 800 -18 "},"ü":{"ha":881,"x_min":0,"x_max":0,"o":"m 469 1014 l 694 1014 l 694 817 l 469 817 m 179 1014 l 403 1014 l 403 817 l 179 817 m 321 -17 b 65 260 161 -17 65 89 l 65 751 l 329 751 l 329 344 b 436 218 329 263 372 218 b 546 344 499 218 546 263 l 546 751 l 810 751 l 810 0 l 546 0 l 546 103 b 321 -17 497 40 428 -17 "},"Ù":{"ha":1053,"x_min":0,"x_max":0,"o":"m 631 1039 l 433 1039 l 228 1188 l 479 1264 m 524 -18 b 74 426 247 -18 74 122 l 74 972 l 347 972 l 347 432 b 526 225 347 292 418 225 b 706 425 635 225 706 289 l 706 972 l 979 972 l 979 433 b 524 -18 979 119 800 -18 "},"ù":{"ha":881,"x_min":0,"x_max":0,"o":"m 321 -17 b 65 260 161 -17 65 89 l 65 751 l 329 751 l 329 344 b 436 218 329 263 372 218 b 546 344 499 218 546 263 l 546 751 l 810 751 l 810 0 l 546 0 l 546 103 b 321 -17 497 40 428 -17 m 150 993 l 394 1072 l 538 817 l 354 817 "},"Ű":{"ha":1053,"x_min":0,"x_max":0,"o":"m 524 -18 b 74 426 247 -18 74 122 l 74 972 l 347 972 l 347 432 b 526 225 347 292 418 225 b 706 425 635 225 706 289 l 706 972 l 979 972 l 979 433 b 524 -18 979 119 800 -18 m 635 1175 l 453 1039 l 275 1039 l 418 1264 l 644 1189 l 692 1264 l 925 1188 l 726 1039 l 549 1039 "},"ű":{"ha":881,"x_min":0,"x_max":0,"o":"m 321 -17 b 65 260 161 -17 65 89 l 65 751 l 329 751 l 329 344 b 436 218 329 263 372 218 b 546 344 499 218 546 263 l 546 751 l 810 751 l 810 0 l 546 0 l 546 103 b 321 -17 497 40 428 -17 m 331 1072 l 557 994 l 599 1072 l 831 993 l 631 817 l 463 817 l 550 982 l 364 817 l 196 817 "},"Ū":{"ha":1053,"x_min":0,"x_max":0,"o":"m 250 1211 l 803 1211 l 803 1049 l 250 1049 m 524 -18 b 74 426 247 -18 74 122 l 74 972 l 347 972 l 347 432 b 526 225 347 292 418 225 b 706 425 635 225 706 289 l 706 972 l 979 972 l 979 433 b 524 -18 979 119 800 -18 "},"ū":{"ha":881,"x_min":0,"x_max":0,"o":"m 321 -17 b 65 260 161 -17 65 89 l 65 751 l 329 751 l 329 344 b 436 218 329 263 372 218 b 546 344 499 218 546 263 l 546 751 l 810 751 l 810 0 l 546 0 l 546 103 b 321 -17 497 40 428 -17 m 176 985 l 697 985 l 697 826 l 176 826 "},"Ų":{"ha":1053,"x_min":0,"x_max":0,"o":"m 672 -228 b 379 -112 493 -253 379 -197 b 424 -11 379 -78 394 -44 b 74 426 206 19 74 160 l 74 972 l 347 972 l 347 432 b 526 225 347 292 418 225 b 706 425 635 225 706 289 l 706 972 l 979 972 l 979 433 b 592 -15 979 146 829 6 b 572 -65 578 -33 572 -50 b 672 -115 572 -101 603 -118 l 672 -228 "},"ų":{"ha":881,"x_min":0,"x_max":0,"o":"m 321 -17 b 65 260 161 -17 65 89 l 65 751 l 329 751 l 329 344 b 436 218 329 263 372 218 b 546 344 499 218 546 263 l 546 751 l 810 751 l 810 0 l 753 0 b 722 -65 731 -25 722 -46 b 822 -115 722 -101 753 -118 l 822 -228 b 529 -112 643 -253 529 -197 b 585 0 529 -74 549 -36 l 546 0 l 546 103 b 321 -17 497 40 428 -17 "},"Ů":{"ha":1053,"x_min":0,"x_max":0,"o":"m 524 -18 b 74 426 247 -18 74 122 l 74 972 l 347 972 l 347 432 b 526 225 347 292 418 225 b 706 425 635 225 706 289 l 706 972 l 979 972 l 979 433 b 524 -18 979 119 800 -18 m 331 1185 b 526 1358 331 1285 418 1358 b 722 1185 635 1358 722 1285 b 526 1010 722 1083 635 1010 b 331 1185 418 1010 331 1083 m 426 1185 b 526 1094 426 1133 467 1094 b 626 1185 586 1094 626 1133 b 526 1275 626 1235 586 1275 b 426 1185 467 1275 426 1235 "},"ů":{"ha":881,"x_min":0,"x_max":0,"o":"m 253 979 b 436 1156 253 1078 335 1156 b 621 979 539 1156 621 1078 b 436 803 621 881 539 803 b 253 979 335 803 253 881 m 342 979 b 436 883 342 926 383 883 b 532 979 489 883 532 926 b 436 1076 532 1033 489 1076 b 342 979 383 1076 342 1033 m 321 -17 b 65 260 161 -17 65 89 l 65 751 l 329 751 l 329 344 b 436 218 329 263 372 218 b 546 344 499 218 546 263 l 546 751 l 810 751 l 810 0 l 546 0 l 546 103 b 321 -17 497 40 428 -17 "},"Ẃ":{"ha":1551,"x_min":0,"x_max":0,"o":"m 822 1264 l 1074 1188 l 868 1039 l 672 1039 m 21 972 l 306 972 l 475 410 l 663 975 l 894 975 l 1082 410 l 1251 972 l 1531 972 l 1206 -7 l 971 -7 l 775 553 l 581 -7 l 346 -7 "},"ẃ":{"ha":1196,"x_min":0,"x_max":0,"o":"m 640 1072 l 885 993 l 679 817 l 496 817 m 17 751 l 275 751 l 374 374 l 489 754 l 707 754 l 824 371 l 925 751 l 1179 751 l 947 -6 l 719 -6 l 597 385 l 472 -6 l 246 -6 "},"Ŵ":{"ha":1551,"x_min":0,"x_max":0,"o":"m 21 972 l 306 972 l 475 410 l 663 975 l 894 975 l 1082 410 l 1251 972 l 1531 972 l 1206 -7 l 971 -7 l 775 553 l 581 -7 l 346 -7 m 658 1246 l 893 1246 l 1064 1039 l 883 1039 l 774 1113 l 664 1039 l 488 1039 "},"ŵ":{"ha":1196,"x_min":0,"x_max":0,"o":"m 490 1044 l 704 1044 l 882 817 l 713 817 l 596 901 l 479 817 l 313 817 m 17 751 l 275 751 l 374 374 l 489 754 l 707 754 l 824 371 l 925 751 l 1179 751 l 947 -6 l 719 -6 l 597 385 l 472 -6 l 246 -6 "},"Ẅ":{"ha":1551,"x_min":0,"x_max":0,"o":"m 814 1231 l 1043 1231 l 1043 1039 l 814 1039 m 507 1231 l 736 1231 l 736 1039 l 507 1039 m 21 972 l 306 972 l 475 410 l 663 975 l 894 975 l 1082 410 l 1251 972 l 1531 972 l 1206 -7 l 971 -7 l 775 553 l 581 -7 l 346 -7 "},"ẅ":{"ha":1196,"x_min":0,"x_max":0,"o":"m 631 1014 l 856 1014 l 856 817 l 631 817 m 340 1014 l 564 1014 l 564 817 l 340 817 m 17 751 l 275 751 l 374 374 l 489 754 l 707 754 l 824 371 l 925 751 l 1179 751 l 947 -6 l 719 -6 l 597 385 l 472 -6 l 246 -6 "},"Ẁ":{"ha":1551,"x_min":0,"x_max":0,"o":"m 881 1039 l 683 1039 l 478 1188 l 729 1264 m 21 972 l 306 972 l 475 410 l 663 975 l 894 975 l 1082 410 l 1251 972 l 1531 972 l 1206 -7 l 971 -7 l 775 553 l 581 -7 l 346 -7 "},"ẁ":{"ha":1196,"x_min":0,"x_max":0,"o":"m 17 751 l 275 751 l 374 374 l 489 754 l 707 754 l 824 371 l 925 751 l 1179 751 l 947 -6 l 719 -6 l 597 385 l 472 -6 l 246 -6 m 310 993 l 554 1072 l 697 817 l 514 817 "},"Ý":{"ha":1004,"x_min":0,"x_max":0,"o":"m 367 364 l -3 972 l 304 972 l 504 618 l 706 972 l 1007 972 l 638 368 l 638 0 l 367 0 m 549 1264 l 800 1188 l 594 1039 l 399 1039 "},"ý":{"ha":869,"x_min":0,"x_max":0,"o":"m 293 -226 b 51 -161 200 -226 121 -200 l 133 24 b 249 -17 175 -1 219 -17 b 310 14 275 -17 293 -10 l 15 751 l 292 751 l 442 299 l 583 751 l 854 751 l 579 18 b 293 -226 514 -157 443 -226 m 482 1072 l 726 993 l 521 817 l 338 817 "},"Ŷ":{"ha":1004,"x_min":0,"x_max":0,"o":"m 367 364 l -3 972 l 304 972 l 504 618 l 706 972 l 1007 972 l 638 368 l 638 0 l 367 0 m 385 1246 l 619 1246 l 790 1039 l 610 1039 l 500 1113 l 390 1039 l 214 1039 "},"ŷ":{"ha":869,"x_min":0,"x_max":0,"o":"m 293 -226 b 51 -161 200 -226 121 -200 l 133 24 b 249 -17 175 -1 219 -17 b 310 14 275 -17 293 -10 l 15 751 l 292 751 l 442 299 l 583 751 l 854 751 l 579 18 b 293 -226 514 -157 443 -226 m 332 1044 l 546 1044 l 724 817 l 554 817 l 438 901 l 321 817 l 154 817 "},"Ÿ":{"ha":1004,"x_min":0,"x_max":0,"o":"m 367 364 l -3 972 l 304 972 l 504 618 l 706 972 l 1007 972 l 638 368 l 638 0 l 367 0 m 540 1231 l 769 1231 l 769 1039 l 540 1039 m 233 1231 l 463 1231 l 463 1039 l 233 1039 "},"ÿ":{"ha":869,"x_min":0,"x_max":0,"o":"m 293 -226 b 51 -161 200 -226 121 -200 l 133 24 b 249 -17 175 -1 219 -17 b 310 14 275 -17 293 -10 l 15 751 l 292 751 l 442 299 l 583 751 l 854 751 l 579 18 b 293 -226 514 -157 443 -226 m 472 1014 l 697 1014 l 697 817 l 472 817 m 182 1014 l 406 1014 l 406 817 l 182 817 "},"Ỳ":{"ha":1004,"x_min":0,"x_max":0,"o":"m 367 364 l -3 972 l 304 972 l 504 618 l 706 972 l 1007 972 l 638 368 l 638 0 l 367 0 m 607 1039 l 410 1039 l 204 1188 l 456 1264 "},"ỳ":{"ha":869,"x_min":0,"x_max":0,"o":"m 293 -226 b 51 -161 200 -226 121 -200 l 133 24 b 249 -17 175 -1 219 -17 b 310 14 275 -17 293 -10 l 15 751 l 292 751 l 442 299 l 583 751 l 854 751 l 579 18 b 293 -226 514 -157 443 -226 m 151 993 l 396 1072 l 539 817 l 356 817 "},"Ź":{"ha":969,"x_min":0,"x_max":0,"o":"m 56 196 l 543 744 l 72 744 l 72 972 l 915 972 l 915 776 l 428 228 l 915 228 l 915 0 l 56 0 m 542 1264 l 793 1188 l 588 1039 l 392 1039 "},"ź":{"ha":782,"x_min":0,"x_max":0,"o":"m 444 1072 l 689 993 l 483 817 l 300 817 m 44 174 l 392 542 l 57 542 l 57 751 l 742 751 l 742 578 l 393 210 l 742 210 l 742 0 l 44 0 "},"Ž":{"ha":969,"x_min":0,"x_max":0,"o":"m 614 1039 l 379 1039 l 208 1246 l 388 1246 l 497 1172 l 607 1246 l 785 1246 m 56 196 l 543 744 l 72 744 l 72 972 l 915 972 l 915 776 l 428 228 l 915 228 l 915 0 l 56 0 "},"ž":{"ha":782,"x_min":0,"x_max":0,"o":"m 507 817 l 293 817 l 115 1044 l 285 1044 l 401 960 l 518 1044 l 685 1044 m 44 174 l 392 542 l 57 542 l 57 751 l 742 751 l 742 578 l 393 210 l 742 210 l 742 0 l 44 0 "},"Ż":{"ha":969,"x_min":0,"x_max":0,"o":"m 378 1231 l 614 1231 l 614 1039 l 378 1039 m 56 196 l 543 744 l 72 744 l 72 972 l 915 972 l 915 776 l 428 228 l 915 228 l 915 0 l 56 0 "},"ż":{"ha":782,"x_min":0,"x_max":0,"o":"m 44 174 l 392 542 l 57 542 l 57 751 l 742 751 l 742 578 l 393 210 l 742 210 l 742 0 l 44 0 m 285 1014 l 517 1014 l 517 817 l 285 817 "},"ə":{"ha":842,"x_min":0,"x_max":0,"o":"m 397 769 b 800 379 633 769 800 613 l 800 376 b 421 -17 800 157 643 -17 b 42 394 161 -17 42 174 b 43 449 42 411 42 431 l 546 449 b 383 572 525 531 465 572 b 217 496 321 572 271 549 l 71 617 b 397 769 143 708 247 769 m 289 314 b 419 178 299 231 347 178 b 550 314 489 178 536 232 "},"ß":{"ha":882,"x_min":0,"x_max":0,"o":"m 426 185 b 583 297 525 190 583 231 l 583 300 b 426 413 583 367 519 404 l 426 553 b 540 701 488 583 540 632 l 540 704 b 444 806 540 767 500 806 b 333 671 379 806 333 758 l 333 0 l 71 0 l 71 665 b 449 1026 71 882 203 1026 b 796 736 665 1026 796 897 l 796 733 b 651 506 796 619 731 546 b 844 269 744 475 844 404 l 844 267 b 426 -4 844 83 669 -18 "},"ﬀ":{"ha":1122,"x_min":0,"x_max":0,"o":"m 679 540 l 590 540 l 590 743 l 679 743 l 679 764 b 743 958 679 850 699 914 b 939 1024 788 1004 850 1024 b 1111 1003 1019 1024 1069 1015 l 1111 817 b 1013 832 1081 826 1050 832 b 938 761 964 832 938 810 l 938 743 l 1110 743 l 1110 540 l 942 540 l 942 0 l 679 0 m 118 540 l 31 540 l 31 747 l 118 747 l 118 764 b 182 958 118 850 138 914 b 378 1024 228 1004 289 1024 b 550 1003 458 1024 508 1015 l 550 817 b 451 832 519 826 489 832 b 376 761 403 832 376 810 l 376 743 l 549 743 l 549 540 l 381 540 l 381 0 l 118 0 "},"ﬁ":{"ha":978,"x_min":0,"x_max":0,"o":"m 632 1014 l 907 1014 l 907 819 l 632 819 m 118 764 b 182 958 118 850 138 914 b 378 1024 228 1004 289 1024 b 550 1003 458 1024 508 1015 l 550 817 b 451 832 519 826 489 832 b 376 761 403 832 376 810 l 376 743 l 549 743 l 549 540 l 381 540 l 381 0 l 118 0 l 118 540 l 31 540 l 31 747 l 118 747 m 638 751 l 901 751 l 901 0 l 638 0 "},"ﬂ":{"ha":978,"x_min":0,"x_max":0,"o":"m 118 540 l 31 540 l 31 747 l 118 747 l 118 764 b 182 958 118 850 138 914 b 378 1024 228 1004 289 1024 b 550 1003 458 1024 508 1015 l 550 817 b 451 832 519 826 489 832 b 376 761 403 832 376 810 l 376 743 l 549 743 l 549 540 l 381 540 l 381 0 l 118 0 m 638 1014 l 901 1014 l 901 0 l 638 0 "},"ﬃ":{"ha":1539,"x_min":0,"x_max":0,"o":"m 1193 1014 l 1468 1014 l 1468 819 l 1193 819 m 679 540 l 590 540 l 590 743 l 679 743 l 679 764 b 743 958 679 850 699 914 b 939 1024 788 1004 850 1024 b 1111 1003 1019 1024 1069 1015 l 1111 817 b 1013 832 1081 826 1050 832 b 938 761 964 832 938 810 l 938 743 l 1110 743 l 1110 540 l 942 540 l 942 0 l 679 0 m 118 540 l 31 540 l 31 747 l 118 747 l 118 764 b 182 958 118 850 138 914 b 378 1024 228 1004 289 1024 b 550 1003 458 1024 508 1015 l 550 817 b 451 832 519 826 489 832 b 376 761 403 832 376 810 l 376 743 l 549 743 l 549 540 l 381 540 l 381 0 l 118 0 m 1199 751 l 1463 751 l 1463 0 l 1199 0 "},"ﬄ":{"ha":1539,"x_min":0,"x_max":0,"o":"m 679 540 l 590 540 l 590 743 l 679 743 l 679 764 b 743 958 679 850 699 914 b 939 1024 788 1004 850 1024 b 1111 1003 1019 1024 1069 1015 l 1111 817 b 1013 832 1081 826 1050 832 b 938 761 964 832 938 810 l 938 743 l 1110 743 l 1110 540 l 942 540 l 942 0 l 679 0 m 118 540 l 31 540 l 31 747 l 118 747 l 118 764 b 182 958 118 850 138 914 b 378 1024 228 1004 289 1024 b 550 1003 458 1024 508 1015 l 550 817 b 451 832 519 826 489 832 b 376 761 403 832 376 810 l 376 743 l 549 743 l 549 540 l 381 540 l 381 0 l 118 0 m 1199 1014 l 1463 1014 l 1463 0 l 1199 0 "},".":{"ha":394,"x_min":0,"x_max":0,"o":"m 60 271 l 335 271 l 335 0 l 60 0 "},",":{"ha":394,"x_min":0,"x_max":0,"o":"m 28 -128 b 167 3 121 -117 169 -72 l 60 3 l 60 274 l 335 274 l 335 53 b 49 -229 335 -153 222 -224 "},":":{"ha":408,"x_min":0,"x_max":0,"o":"m 67 751 l 342 751 l 342 481 l 67 481 m 67 271 l 342 271 l 342 0 l 67 0 "},";":{"ha":408,"x_min":0,"x_max":0,"o":"m 67 751 l 342 751 l 342 481 l 67 481 m 35 -131 b 174 0 128 -119 176 -75 l 67 0 l 67 271 l 342 271 l 342 50 b 56 -232 342 -156 229 -226 "},"…":{"ha":1167,"x_min":0,"x_max":0,"o":"m 838 267 l 1107 267 l 1107 0 l 838 0 m 449 267 l 718 267 l 718 0 l 449 0 m 60 267 l 329 267 l 329 0 l 60 0 "},"·":{"ha":394,"x_min":0,"x_max":0,"o":"m 60 569 l 335 569 l 335 299 l 60 299 "},"•":{"ha":694,"x_min":0,"x_max":0,"o":"m 347 254 b 113 488 218 254 113 358 l 113 490 b 347 724 113 619 218 724 b 582 490 476 724 582 619 l 582 488 b 347 254 582 358 476 254 "},"&":{"ha":969,"x_min":0,"x_max":0,"o":"m 665 82 b 376 -17 583 19 489 -17 b 29 264 178 -17 29 88 l 29 267 b 226 539 29 388 94 479 b 163 725 182 603 163 663 l 163 728 b 468 992 163 869 278 992 b 757 742 644 992 757 883 l 757 739 b 567 486 757 619 681 539 l 675 381 b 767 535 707 426 738 479 l 944 446 b 817 240 904 372 863 303 l 947 111 l 765 -19 m 440 607 b 543 726 510 638 543 675 l 543 729 b 468 807 543 776 513 807 b 390 721 422 807 390 772 l 390 718 b 440 607 390 681 407 649 m 413 182 b 528 224 451 182 490 199 l 368 386 b 299 281 319 357 299 319 l 299 278 b 413 182 299 221 346 182 "},"!":{"ha":450,"x_min":0,"x_max":0,"o":"m 75 854 l 75 972 l 375 972 l 375 854 l 294 317 l 156 317 m 88 236 l 363 236 l 363 0 l 88 0 "},"¡":{"ha":450,"x_min":0,"x_max":0,"o":"m 88 972 l 363 972 l 363 736 l 88 736 m 75 118 l 156 656 l 294 656 l 375 118 l 375 0 l 75 0 "},"?":{"ha":750,"x_min":0,"x_max":0,"o":"m 231 549 l 242 561 b 460 672 403 575 460 613 l 460 674 b 356 750 460 721 422 750 b 153 658 290 750 218 717 l 14 842 b 374 988 99 926 214 988 b 721 696 578 988 721 876 l 721 693 b 450 406 721 518 604 443 l 433 317 l 265 317 m 208 236 l 482 236 l 482 0 l 208 0 "},"¿":{"ha":750,"x_min":0,"x_max":0,"o":"m 268 972 l 543 972 l 543 736 l 268 736 m 376 -15 b 31 276 174 -15 31 96 l 31 279 b 301 567 31 454 146 529 l 317 656 l 485 656 l 521 424 l 508 411 b 290 300 347 397 290 360 l 290 299 b 396 222 290 251 329 222 b 597 314 460 222 532 256 l 738 131 b 376 -15 653 46 536 -15 "},"“":{"ha":760,"x_min":0,"x_max":0,"o":"m 424 697 b 706 979 424 899 533 974 l 728 878 b 592 747 635 867 589 822 l 694 747 l 694 476 l 424 476 m 56 697 b 338 979 56 899 164 974 l 358 878 b 224 747 265 867 219 822 l 326 747 l 326 476 l 56 476 "},"”":{"ha":760,"x_min":0,"x_max":0,"o":"m 401 571 b 538 701 494 581 540 626 l 433 701 l 433 972 l 704 972 l 704 751 b 424 469 704 549 596 475 m 32 571 b 168 701 125 581 171 626 l 65 701 l 65 972 l 336 972 l 336 751 b 54 469 336 549 228 475 "},"‘":{"ha":394,"x_min":0,"x_max":0,"o":"m 56 697 b 340 979 56 903 167 974 l 363 878 b 224 747 269 867 219 822 l 329 747 l 329 476 l 56 476 "},"’":{"ha":394,"x_min":0,"x_max":0,"o":"m 32 571 b 171 701 125 581 175 626 l 65 701 l 65 972 l 339 972 l 339 751 b 54 469 339 546 228 475 "},"„":{"ha":758,"x_min":0,"x_max":0,"o":"m 397 -131 b 532 0 490 -119 536 -75 l 429 0 l 429 271 l 700 271 l 700 50 b 418 -232 700 -153 592 -226 m 28 -131 b 163 0 121 -119 167 -75 l 60 0 l 60 271 l 331 271 l 331 50 b 49 -232 331 -153 222 -226 "},"‚":{"ha":394,"x_min":0,"x_max":0,"o":"m 28 -131 b 167 0 121 -119 169 -75 l 60 0 l 60 271 l 335 271 l 335 50 b 49 -232 335 -156 222 -226 "},"«":{"ha":876,"x_min":0,"x_max":0,"o":"m 401 367 l 401 378 l 646 703 l 835 610 l 654 372 l 835 136 l 646 42 m 42 339 l 42 406 l 264 703 l 454 610 l 274 372 l 454 136 l 264 42 "},"»":{"ha":876,"x_min":0,"x_max":0,"o":"m 424 135 l 604 372 l 424 608 l 613 703 l 835 406 l 835 339 l 613 42 m 42 135 l 222 372 l 42 608 l 232 703 l 475 378 l 475 367 l 232 42 "},"‹":{"ha":496,"x_min":0,"x_max":0,"o":"m 42 339 l 42 406 l 264 703 l 454 610 l 274 372 l 454 136 l 264 42 "},"›":{"ha":496,"x_min":0,"x_max":0,"o":"m 42 135 l 222 372 l 42 608 l 232 703 l 454 406 l 454 339 l 232 42 "},"-":{"ha":567,"x_min":0,"x_max":0,"o":"m 56 550 l 511 550 l 511 318 l 56 318 "},"–":{"ha":733,"x_min":0,"x_max":0,"o":"m 56 547 l 678 547 l 678 321 l 56 321 "},"—":{"ha":1247,"x_min":0,"x_max":0,"o":"m 56 547 l 1192 547 l 1192 321 l 56 321 "},"_":{"ha":833,"x_min":0,"x_max":0,"o":"m -3 -61 l 836 -61 l 836 -222 l -3 -222 "},"/":{"ha":743,"x_min":0,"x_max":0,"o":"m 563 1108 l 776 1108 l 161 -178 l -53 -178 "},"\\":{"ha":743,"x_min":0,"x_max":0,"o":"m -33 1108 l 181 1108 l 796 -178 l 582 -178 "},"|":{"ha":493,"x_min":0,"x_max":0,"o":"m 146 1108 l 347 1108 l 347 -178 l 146 -178 "},"(":{"ha":618,"x_min":0,"x_max":0,"o":"m 467 -196 b 61 399 207 -60 61 117 b 467 993 61 681 207 857 l 576 829 b 319 399 397 706 319 581 b 576 -32 319 217 397 92 l 467 -196 "},")":{"ha":618,"x_min":0,"x_max":0,"o":"m 42 -32 b 299 399 221 92 299 217 b 42 829 299 581 221 706 l 151 993 b 557 399 411 857 557 681 b 151 -196 557 117 411 -60 "},"[":{"ha":635,"x_min":0,"x_max":0,"o":"m 92 972 l 572 972 l 572 793 l 328 793 l 328 -1 l 572 -1 l 572 -181 l 92 -181 "},"]":{"ha":635,"x_min":0,"x_max":0,"o":"m 63 -1 l 307 -1 l 307 793 l 63 793 l 63 972 l 543 972 l 543 -181 l 63 -181 "},"{":{"ha":681,"x_min":0,"x_max":0,"o":"m 596 -196 b 229 72 318 -162 229 -81 b 233 175 229 93 233 151 b 69 311 233 281 178 311 l 47 311 l 47 486 l 69 486 b 233 622 178 486 233 517 b 229 725 233 646 229 704 b 596 993 229 878 318 960 l 636 839 b 464 682 488 806 464 768 b 468 585 464 658 468 614 b 313 399 468 483 414 426 b 468 213 414 371 468 314 b 464 115 468 183 464 139 b 636 -42 464 29 488 -8 l 596 -196 "},"}":{"ha":681,"x_min":0,"x_max":0,"o":"m 44 -42 b 217 115 193 -8 217 29 b 213 213 217 139 213 183 b 368 399 213 314 267 371 b 213 585 267 426 213 483 b 217 682 213 614 217 658 b 44 839 217 768 193 806 l 85 993 b 451 725 363 960 451 878 b 447 622 451 704 447 646 b 611 486 447 517 503 486 l 633 486 l 633 311 l 611 311 b 447 175 503 311 447 281 b 451 72 447 151 451 93 b 85 -196 451 -81 363 -162 "},"@":{"ha":1340,"x_min":0,"x_max":0,"o":"m 682 -225 b 63 382 324 -225 63 46 b 678 992 63 717 328 992 b 1276 451 1022 992 1276 736 b 981 79 1276 200 1132 79 b 767 185 864 79 800 128 b 563 82 714 124 649 82 b 308 361 418 82 308 192 b 615 722 308 560 450 722 b 801 619 706 722 765 676 l 818 704 l 1033 671 l 969 313 b 964 251 967 292 964 272 b 1054 169 964 206 997 169 b 1218 451 1144 169 1218 267 b 678 936 1218 708 994 936 b 121 382 354 936 121 689 b 682 -169 121 72 351 -169 b 1022 -76 819 -169 918 -137 l 1050 -121 b 682 -225 943 -186 826 -225 m 632 269 b 765 429 706 269 765 340 b 664 535 765 494 722 535 b 531 378 589 535 531 465 b 632 269 531 308 574 269 "},"©":{"ha":1153,"x_min":0,"x_max":0,"o":"m 575 -19 b 74 483 293 -19 74 210 l 74 486 b 578 992 74 760 296 992 b 1079 489 860 992 1079 763 l 1079 486 b 575 -19 1079 213 857 -19 m 575 36 b 1021 486 829 36 1021 240 l 1021 489 b 578 936 1021 735 831 936 b 132 486 324 936 132 732 l 132 483 b 575 36 132 238 322 36 m 583 217 b 304 490 421 217 304 336 l 304 493 b 588 769 304 644 419 769 b 813 660 697 769 764 725 l 700 571 b 583 633 669 608 635 633 b 458 494 510 633 458 571 l 458 492 b 583 353 458 414 510 353 b 703 417 639 353 671 379 l 817 336 b 583 217 765 267 699 217 "},"℗":{"ha":1153,"x_min":0,"x_max":0,"o":"m 575 -19 b 74 483 293 -19 74 210 l 74 486 b 578 992 74 760 296 992 b 1079 489 860 992 1079 763 l 1079 486 b 575 -19 1079 213 857 -19 m 575 36 b 1021 486 829 36 1021 240 l 1021 489 b 578 936 1021 735 831 936 b 132 486 324 936 132 732 l 132 483 b 575 36 132 238 322 36 m 379 763 l 608 763 b 832 574 744 763 832 693 l 832 571 b 603 381 832 447 733 381 l 529 381 l 529 228 l 379 228 m 597 497 b 682 565 650 497 682 524 l 682 568 b 597 638 682 614 650 638 l 529 638 l 529 497 "},"®":{"ha":511,"x_min":0,"x_max":0,"o":"m 256 500 b 14 742 119 500 14 610 l 14 743 b 256 986 14 875 121 986 b 497 744 392 986 497 876 l 497 743 b 256 500 497 611 390 500 m 256 526 b 469 743 376 526 469 625 l 469 744 b 256 960 469 863 378 960 b 42 743 135 960 42 861 l 42 742 b 256 526 42 624 133 526 m 147 876 l 271 876 b 382 789 338 876 382 847 b 331 708 382 749 363 722 l 390 621 l 300 621 l 250 694 l 226 694 l 226 621 l 147 621 m 267 754 b 303 782 290 754 303 765 b 268 810 303 800 290 810 l 226 810 l 226 754 "},"℠":{"ha":975,"x_min":0,"x_max":0,"o":"m 231 536 b 22 608 153 536 75 563 l 86 686 b 236 632 131 651 182 632 b 292 664 274 632 292 644 b 215 707 292 685 275 693 b 44 840 121 728 44 754 b 217 981 44 921 107 981 b 399 922 292 981 354 960 l 339 840 b 213 885 300 868 256 885 b 163 853 179 885 163 871 b 240 810 163 832 182 822 b 411 676 342 789 411 757 b 231 536 411 589 339 536 m 474 972 l 600 972 l 701 807 l 804 972 l 929 972 l 929 544 l 811 544 l 811 794 l 703 625 l 699 625 l 590 794 l 590 544 l 474 544 "},"™":{"ha":965,"x_min":0,"x_max":0,"o":"m 464 972 l 590 972 l 692 807 l 794 972 l 919 972 l 919 544 l 801 544 l 801 794 l 693 625 l 689 625 l 581 794 l 581 544 l 464 544 m 150 868 l 22 868 l 22 972 l 397 972 l 397 868 l 269 868 l 269 544 l 150 544 "},"*":{"ha":590,"x_min":0,"x_max":0,"o":"m 257 654 l 114 532 l 39 660 l 215 722 l 39 785 l 114 914 l 257 792 l 222 975 l 368 975 l 333 792 l 476 914 l 551 785 l 375 722 l 551 660 l 476 532 l 333 654 l 368 471 l 222 471 "},"†":{"ha":569,"x_min":0,"x_max":0,"o":"m 229 685 l 56 667 l 56 811 l 228 793 l 207 972 l 363 972 l 342 793 l 514 811 l 514 667 l 340 685 l 354 310 l 215 310 "},"‡":{"ha":597,"x_min":0,"x_max":0,"o":"m 242 179 l 69 161 l 69 306 l 244 288 l 226 486 l 244 685 l 69 667 l 69 811 l 242 793 l 221 972 l 376 972 l 356 793 l 528 811 l 528 667 l 353 685 l 371 486 l 353 288 l 528 306 l 528 161 l 356 179 l 376 0 l 221 0 "},"$":{"ha":925,"x_min":0,"x_max":0,"o":"m 410 3 b 35 140 274 17 139 65 l 160 325 b 418 211 249 263 332 225 l 418 378 b 81 678 194 429 81 506 l 81 681 b 413 974 81 844 200 958 l 413 1053 l 557 1053 l 557 969 b 850 861 671 957 767 918 l 736 675 b 550 758 679 715 613 743 l 550 597 b 882 294 771 546 882 467 l 882 292 b 554 0 882 122 751 18 l 554 -136 l 410 -136 m 419 771 b 325 701 351 765 325 738 l 325 699 b 419 621 325 663 344 642 m 549 203 b 642 274 613 210 642 233 l 642 276 b 549 356 642 314 621 335 l 549 203 "},"£":{"ha":888,"x_min":0,"x_max":0,"o":"m 61 160 l 165 200 l 165 365 l 61 365 l 61 554 l 165 554 l 165 625 b 261 893 165 736 199 831 b 526 989 324 956 411 989 b 850 849 678 989 778 929 l 686 669 b 544 749 644 719 601 749 b 433 625 475 749 433 701 l 433 554 l 733 554 l 733 365 l 433 365 l 433 213 l 840 213 l 840 0 l 61 0 "},"€":{"ha":947,"x_min":0,"x_max":0,"o":"m 585 -19 b 164 310 360 -19 211 115 l 51 310 l 51 454 l 146 454 b 144 483 144 464 144 474 l 144 486 b 146 524 144 499 144 511 l 51 524 l 51 668 l 168 668 b 586 992 217 850 364 992 b 919 835 738 992 846 929 l 749 675 b 588 761 708 726 660 761 b 436 664 518 761 465 725 l 653 664 l 653 524 l 406 524 b 404 489 404 513 404 500 l 404 486 b 406 454 404 475 404 465 l 653 454 l 653 314 l 433 314 b 593 211 464 250 517 211 b 757 303 664 211 711 247 l 924 146 b 585 -19 844 43 738 -19 "},"¥":{"ha":983,"x_min":0,"x_max":0,"o":"m 358 129 l 103 129 l 103 296 l 358 296 l 358 365 l 103 365 l 103 532 l 294 532 l 6 972 l 311 972 l 494 653 l 678 972 l 978 972 l 688 532 l 881 532 l 881 365 l 625 365 l 625 296 l 881 296 l 881 129 l 625 129 l 625 0 l 358 0 "},"¢":{"ha":799,"x_min":0,"x_max":0,"o":"m 304 128 b 44 490 150 181 44 322 l 44 493 b 439 883 44 710 203 878 l 456 981 l 615 981 l 594 860 b 769 725 674 831 732 781 l 608 601 b 543 657 590 624 569 643 l 479 307 b 611 386 531 314 575 343 l 771 269 b 460 104 704 172 603 108 l 440 -8 l 281 -8 l 304 128 m 414 682 b 274 496 329 669 274 588 l 274 493 b 351 331 274 419 301 361 l 414 682 "},"#":{"ha":981,"x_min":0,"x_max":0,"o":"m 149 188 l 40 188 l 40 411 l 188 411 l 214 567 l 86 567 l 86 790 l 253 790 l 283 972 l 485 972 l 453 790 l 629 790 l 660 972 l 861 972 l 831 790 l 939 790 l 939 567 l 792 567 l 765 411 l 893 411 l 893 188 l 728 188 l 694 0 l 493 0 l 526 188 l 350 188 l 318 0 l 117 0 m 568 406 l 596 572 l 411 572 l 382 406 "},"¶":{"ha":828,"x_min":0,"x_max":0,"o":"m 471 306 l 442 306 b 31 635 203 306 31 421 l 31 638 b 438 972 31 853 192 972 l 742 972 l 742 0 l 471 0 "},"§":{"ha":869,"x_min":0,"x_max":0,"o":"m 429 -18 b 100 92 292 -18 171 29 l 207 243 b 435 161 276 193 360 161 b 510 203 489 161 510 178 l 510 206 b 375 268 510 232 469 249 b 58 471 201 307 58 353 l 58 474 b 185 626 58 556 111 600 b 119 764 143 658 119 707 l 119 767 b 440 990 119 890 226 990 b 769 881 578 990 699 943 l 663 729 b 435 811 593 779 510 811 b 360 769 382 811 360 796 l 360 767 b 494 704 360 742 394 725 b 811 501 668 665 811 621 l 811 499 b 685 346 811 418 758 372 b 750 210 725 315 750 267 l 750 207 b 429 -18 750 83 644 -18 m 538 413 b 608 461 579 413 608 429 l 608 464 b 468 535 608 494 556 514 b 331 560 403 551 358 560 b 260 511 289 560 260 543 l 260 508 b 400 438 260 478 314 458 b 538 413 467 421 511 413 "},"ª":{"ha":542,"x_min":0,"x_max":0,"o":"m 200 551 b 61 678 121 551 61 596 l 61 681 b 224 810 61 767 126 810 b 322 794 261 810 299 803 l 322 800 b 239 868 322 843 296 868 b 125 844 196 868 163 858 l 96 947 b 263 979 143 967 192 979 b 421 928 338 979 388 961 b 465 796 453 897 465 854 l 465 560 l 321 560 l 321 604 b 200 551 293 572 254 551 m 57 482 l 472 482 l 472 375 l 57 375 m 251 643 b 324 711 293 643 324 669 l 324 729 b 267 740 308 735 289 740 b 201 690 226 740 201 719 l 201 688 b 251 643 201 660 222 643 "},"º":{"ha":542,"x_min":0,"x_max":0,"o":"m 269 549 b 46 761 140 549 46 643 l 46 764 b 272 979 46 883 142 979 b 496 767 401 979 496 885 l 496 764 b 269 549 496 644 400 549 m 71 482 l 471 482 l 471 375 l 71 375 m 272 672 b 354 761 322 672 354 711 l 354 764 b 269 857 354 815 319 857 b 188 767 219 857 188 817 l 188 764 b 272 672 188 713 222 672 "},"°":{"ha":656,"x_min":0,"x_max":0,"o":"m 328 489 b 75 733 192 489 75 599 l 75 736 b 328 983 75 871 193 983 b 581 736 461 983 581 871 l 581 733 b 328 489 581 599 464 489 m 328 617 b 444 733 394 617 444 669 l 444 736 b 328 854 444 801 392 854 b 211 736 263 854 211 801 l 211 733 b 328 617 211 669 261 617 "},"%":{"ha":1249,"x_min":0,"x_max":0,"o":"m 299 463 b 49 722 149 463 49 579 l 49 725 b 300 986 49 868 147 986 b 550 726 451 986 550 868 l 550 724 b 299 463 550 581 449 463 m 949 -14 b 699 246 799 -14 699 104 l 699 249 b 950 510 699 392 797 510 b 1200 250 1101 510 1200 393 l 1200 247 b 949 -14 1200 106 1099 -14 m 300 615 b 381 722 347 615 381 661 l 381 725 b 299 833 381 786 346 833 b 218 726 250 833 218 788 l 218 724 b 300 615 218 661 254 615 m 950 139 b 1031 246 997 139 1031 185 l 1031 249 b 949 357 1031 311 996 357 b 868 250 899 357 868 313 l 868 247 b 950 139 868 186 904 139 m 906 972 l 1093 972 l 675 438 l 343 0 l 156 0 l 565 524 "},"‰":{"ha":1799,"x_min":0,"x_max":0,"o":"m 299 463 b 49 722 149 463 49 579 l 49 725 b 300 986 49 868 147 986 b 550 726 451 986 550 868 l 550 724 b 299 463 550 581 449 463 m 1499 -14 b 1249 246 1349 -14 1249 104 l 1249 249 b 1500 510 1249 392 1347 510 b 1750 250 1651 510 1750 393 l 1750 247 b 1499 -14 1750 106 1649 -14 m 949 -14 b 699 246 799 -14 699 104 l 699 249 b 950 510 699 392 797 510 b 1200 250 1101 510 1200 393 l 1200 247 b 949 -14 1200 106 1099 -14 m 300 615 b 381 722 347 615 381 661 l 381 725 b 299 833 381 786 346 833 b 218 726 250 833 218 788 l 218 724 b 300 615 218 661 254 615 m 1500 139 b 1581 246 1547 139 1581 185 l 1581 249 b 1499 357 1581 311 1546 357 b 1418 250 1449 357 1418 313 l 1418 247 b 1500 139 1418 186 1454 139 m 950 139 b 1031 246 997 139 1031 185 l 1031 249 b 949 357 1031 311 996 357 b 868 250 899 357 868 313 l 868 247 b 950 139 868 186 904 139 m 906 972 l 1093 972 l 675 438 l 343 0 l 156 0 l 565 524 "},"\"":{"ha":746,"x_min":0,"x_max":0,"o":"m 435 972 l 718 972 l 718 965 l 542 474 l 403 474 m 78 972 l 361 972 l 361 965 l 185 474 l 47 474 "},"'":{"ha":394,"x_min":0,"x_max":0,"o":"m 78 972 l 367 972 l 367 965 l 190 474 l 47 474 "},"+":{"ha":889,"x_min":0,"x_max":0,"o":"m 324 372 l 79 372 l 79 606 l 324 606 l 324 847 l 565 847 l 565 606 l 810 606 l 810 372 l 565 372 l 565 131 l 324 131 "},"−":{"ha":889,"x_min":0,"x_max":0,"o":"m 79 372 l 79 606 l 810 606 l 810 372 "},"÷":{"ha":889,"x_min":0,"x_max":0,"o":"m 321 907 l 568 907 l 568 683 l 321 683 m 79 383 l 79 594 l 810 594 l 810 383 m 321 294 l 568 294 l 568 71 l 321 71 "},"=":{"ha":889,"x_min":0,"x_max":0,"o":"m 88 789 l 801 789 l 801 560 l 88 560 m 88 418 l 801 418 l 801 190 l 88 190 "},"×":{"ha":889,"x_min":0,"x_max":0,"o":"m 443 336 l 236 124 l 79 281 l 292 488 l 78 694 l 239 856 l 447 643 l 654 856 l 811 699 l 599 492 l 811 285 l 650 124 "},"<":{"ha":889,"x_min":0,"x_max":0,"o":"m 88 367 l 88 611 l 778 886 l 778 642 l 324 489 l 778 338 l 778 92 "},">":{"ha":889,"x_min":0,"x_max":0,"o":"m 111 336 l 565 488 l 111 640 l 111 886 l 801 611 l 801 367 l 111 92 "},"±":{"ha":889,"x_min":0,"x_max":0,"o":"m 554 524 l 556 290 l 333 290 l 335 524 l 85 522 l 85 732 l 335 731 l 333 964 l 556 964 l 554 731 l 804 732 l 804 522 m 85 0 l 85 194 l 804 194 l 804 0 "}," ":{"ha":385,"x_min":0,"x_max":0,"o":""}," ":{"ha":385,"x_min":0,"x_max":0,"o":""}," ":{"ha":1389,"x_min":0,"x_max":0,"o":""}," ":{"ha":694,"x_min":0,"x_max":0,"o":""}," ":{"ha":463,"x_min":0,"x_max":0,"o":""}," ":{"ha":347,"x_min":0,"x_max":0,"o":""}," ":{"ha":185,"x_min":0,"x_max":0,"o":""}," ":{"ha":104,"x_min":0,"x_max":0,"o":""},"ƒ":{"ha":768,"x_min":0,"x_max":0,"o":"m 154 -14 b 35 0 113 -14 78 -10 l 35 192 b 100 183 61 186 81 183 b 196 274 160 183 183 207 l 228 457 l 143 457 l 143 657 l 263 657 l 281 747 b 583 986 310 910 404 986 b 736 968 642 986 697 979 l 736 774 b 643 786 703 782 669 786 b 535 699 578 786 546 761 l 528 657 l 686 657 l 686 457 l 492 457 l 453 239 b 154 -14 421 54 335 -14 "},"^":{"ha":694,"x_min":0,"x_max":0,"o":"m 258 971 l 436 971 l 636 685 l 451 685 l 346 819 l 240 685 l 58 685 "},"~":{"ha":701,"x_min":0,"x_max":0,"o":"m 57 340 b 229 547 88 478 135 547 b 446 493 313 547 401 493 b 517 557 485 493 499 514 l 644 522 b 472 315 614 385 567 315 b 254 369 389 315 300 369 b 185 306 215 369 203 349 "},"⁄":{"ha":625,"x_min":0,"x_max":0,"o":"m 281 508 l 585 972 l 700 972 l 344 464 l 40 0 l -75 0 "},"´":{"ha":694,"x_min":0,"x_max":0,"o":"m 328 1072 l 572 993 l 367 817 l 183 817 "},"˝":{"ha":694,"x_min":0,"x_max":0,"o":"m 174 1072 l 400 994 l 442 1072 l 674 993 l 474 817 l 306 817 l 393 982 l 207 817 l 39 817 "},"`":{"ha":694,"x_min":0,"x_max":0,"o":"m 124 993 l 368 1072 l 511 817 l 328 817 "},"ˆ":{"ha":694,"x_min":0,"x_max":0,"o":"m 240 1044 l 454 1044 l 632 817 l 463 817 l 346 901 l 229 817 l 63 817 "},"ˇ":{"ha":694,"x_min":0,"x_max":0,"o":"m 454 817 l 240 817 l 63 1044 l 232 1044 l 349 960 l 465 1044 l 632 1044 "},"˘":{"ha":694,"x_min":0,"x_max":0,"o":"m 347 814 b 74 1044 193 814 88 897 l 228 1044 b 347 964 244 996 278 964 b 467 1044 417 964 450 996 l 621 1044 b 347 814 608 897 501 814 "},"˜":{"ha":694,"x_min":0,"x_max":0,"o":"m 54 840 b 226 1047 85 978 132 1047 b 443 993 310 1047 399 993 b 514 1057 482 993 496 1014 l 640 1022 b 468 817 611 885 564 817 b 251 871 385 817 297 871 b 181 806 213 871 199 850 "},"¯":{"ha":694,"x_min":0,"x_max":0,"o":"m 88 985 l 608 985 l 608 826 l 88 826 "},"¨":{"ha":694,"x_min":0,"x_max":0,"o":"m 381 1014 l 606 1014 l 606 817 l 381 817 m 90 1014 l 314 1014 l 314 817 l 90 817 "},"˙":{"ha":694,"x_min":0,"x_max":0,"o":"m 232 1014 l 464 1014 l 464 817 l 232 817 "},"˚":{"ha":694,"x_min":0,"x_max":0,"o":"m 164 994 b 347 1171 164 1093 246 1171 b 532 994 450 1171 532 1093 b 347 818 532 896 450 818 b 164 994 246 818 164 896 m 253 994 b 347 899 253 942 294 899 b 443 994 400 899 443 942 b 347 1092 443 1049 400 1092 b 253 994 294 1092 253 1049 "},"̦":{"ha":694,"x_min":0,"x_max":0,"o":"m 222 -347 b 329 -257 303 -340 333 -310 l 235 -257 l 235 -68 l 460 -68 l 460 -222 b 233 -426 460 -368 376 -421 "},"¸":{"ha":694,"x_min":0,"x_max":0,"o":"m 153 -151 l 285 28 l 456 28 l 361 -240 "},"˛":{"ha":694,"x_min":0,"x_max":0,"o":"m 518 -228 b 225 -112 339 -253 225 -197 b 294 14 225 -69 250 -28 l 463 14 b 418 -65 431 -18 418 -43 b 518 -115 418 -101 449 -118 l 518 -228 "}}}
